<?xml version="1.0" encoding="UTF-8" standalone="no"?>
<!DOCTYPE svg PUBLIC "-//W3C//DTD SVG 1.1//EN"
 "http://www.w3.org/Graphics/SVG/1.1/DTD/svg11.dtd">
<!-- Generated by graphviz version 2.38.0 (20140413.2041)
 -->
<!-- Title: G Pages: 1 -->
<svg width="906pt" height="2212pt"
 viewBox="0.00 0.00 905.61 2212.00" xmlns="http://www.w3.org/2000/svg" xmlns:xlink="http://www.w3.org/1999/xlink">
<g id="graph0" class="graph" transform="scale(1 1) rotate(0) translate(4 2208)">
<title>G</title>
<polygon fill="white" stroke="none" points="-4,4 -4,-2208 901.614,-2208 901.614,4 -4,4"/>
<g id="clust1" class="cluster"><title>cluster_Global</title>
<path fill="none" stroke="gray" d="M20,-98C20,-98 877.614,-98 877.614,-98 883.614,-98 889.614,-104 889.614,-110 889.614,-110 889.614,-2184 889.614,-2184 889.614,-2190 883.614,-2196 877.614,-2196 877.614,-2196 20,-2196 20,-2196 14,-2196 8,-2190 8,-2184 8,-2184 8,-110 8,-110 8,-104 14,-98 20,-98"/>
<text text-anchor="middle" x="448.807" y="-2183.2" font-family="Times,serif" font-size="11.00" fill="gray">Global</text>
</g>
<g id="clust2" class="cluster"><title>cluster_\LiftKit</title>
<path fill="none" stroke="gray" d="M28,-106C28,-106 869.614,-106 869.614,-106 875.614,-106 881.614,-112 881.614,-118 881.614,-118 881.614,-2157 881.614,-2157 881.614,-2163 875.614,-2169 869.614,-2169 869.614,-2169 28,-2169 28,-2169 22,-2169 16,-2163 16,-2157 16,-2157 16,-118 16,-118 16,-112 22,-106 28,-106"/>
<text text-anchor="middle" x="448.807" y="-2156.2" font-family="Times,serif" font-size="11.00" fill="gray">LiftKit</text>
</g>
<g id="clust3" class="cluster"><title>cluster_\LiftKit\Application</title>
<path fill="none" stroke="gray" d="M467.465,-1749C467.465,-1749 858.816,-1749 858.816,-1749 864.816,-1749 870.816,-1755 870.816,-1761 870.816,-1761 870.816,-2130 870.816,-2130 870.816,-2136 864.816,-2142 858.816,-2142 858.816,-2142 467.465,-2142 467.465,-2142 461.465,-2142 455.465,-2136 455.465,-2130 455.465,-2130 455.465,-1761 455.465,-1761 455.465,-1755 461.465,-1749 467.465,-1749"/>
<text text-anchor="middle" x="663.14" y="-2129.2" font-family="Times,serif" font-size="11.00" fill="gray">Application</text>
</g>
<g id="clust4" class="cluster"><title>cluster_\LiftKit\Application\Exception</title>
<path fill="none" stroke="gray" d="M704.193,-1803C704.193,-1803 850.816,-1803 850.816,-1803 856.816,-1803 862.816,-1809 862.816,-1815 862.816,-1815 862.816,-1970 862.816,-1970 862.816,-1976 856.816,-1982 850.816,-1982 850.816,-1982 704.193,-1982 704.193,-1982 698.193,-1982 692.193,-1976 692.193,-1970 692.193,-1970 692.193,-1815 692.193,-1815 692.193,-1809 698.193,-1803 704.193,-1803"/>
<text text-anchor="middle" x="777.505" y="-1969.2" font-family="Times,serif" font-size="11.00" fill="gray">Exception</text>
</g>
<g id="clust5" class="cluster"><title>cluster_\LiftKit\Application\Hook</title>
<path fill="none" stroke="gray" d="M475.465,-1990C475.465,-1990 801.308,-1990 801.308,-1990 807.308,-1990 813.308,-1996 813.308,-2002 813.308,-2002 813.308,-2103 813.308,-2103 813.308,-2109 807.308,-2115 801.308,-2115 801.308,-2115 475.465,-2115 475.465,-2115 469.465,-2115 463.465,-2109 463.465,-2103 463.465,-2103 463.465,-2002 463.465,-2002 463.465,-1996 469.465,-1990 475.465,-1990"/>
<text text-anchor="middle" x="638.386" y="-2102.2" font-family="Times,serif" font-size="11.00" fill="gray">Hook</text>
</g>
<g id="clust6" class="cluster"><title>cluster_\LiftKit\Config</title>
<path fill="none" stroke="gray" d="M753.701,-114C753.701,-114 801.308,-114 801.308,-114 807.308,-114 813.308,-120 813.308,-126 813.308,-126 813.308,-173 813.308,-173 813.308,-179 807.308,-185 801.308,-185 801.308,-185 753.701,-185 753.701,-185 747.701,-185 741.701,-179 741.701,-173 741.701,-173 741.701,-126 741.701,-126 741.701,-120 747.701,-114 753.701,-114"/>
<text text-anchor="middle" x="777.505" y="-172.2" font-family="Times,serif" font-size="11.00" fill="gray">Config</text>
</g>
<g id="clust7" class="cluster"><title>cluster_\LiftKit\Controller</title>
<path fill="none" stroke="gray" d="M465.563,-1537C465.563,-1537 839.013,-1537 839.013,-1537 845.013,-1537 851.013,-1543 851.013,-1549 851.013,-1549 851.013,-1729 851.013,-1729 851.013,-1735 845.013,-1741 839.013,-1741 839.013,-1741 465.563,-1741 465.563,-1741 459.563,-1741 453.563,-1735 453.563,-1729 453.563,-1729 453.563,-1549 453.563,-1549 453.563,-1543 459.563,-1537 465.563,-1537"/>
<text text-anchor="middle" x="652.288" y="-1728.2" font-family="Times,serif" font-size="11.00" fill="gray">Controller</text>
</g>
<g id="clust8" class="cluster"><title>cluster_\LiftKit\Controller\Exception</title>
<path fill="none" stroke="gray" d="M723.996,-1545C723.996,-1545 831.013,-1545 831.013,-1545 837.013,-1545 843.013,-1551 843.013,-1557 843.013,-1557 843.013,-1658 843.013,-1658 843.013,-1664 837.013,-1670 831.013,-1670 831.013,-1670 723.996,-1670 723.996,-1670 717.996,-1670 711.996,-1664 711.996,-1658 711.996,-1658 711.996,-1557 711.996,-1557 711.996,-1551 717.996,-1545 723.996,-1545"/>
<text text-anchor="middle" x="777.505" y="-1657.2" font-family="Times,serif" font-size="11.00" fill="gray">Exception</text>
</g>
<g id="clust9" class="cluster"><title>cluster_\LiftKit\Loader</title>
<path fill="none" stroke="gray" d="M467.465,-1236C467.465,-1236 847.013,-1236 847.013,-1236 853.013,-1236 859.013,-1242 859.013,-1248 859.013,-1248 859.013,-1517 859.013,-1517 859.013,-1523 853.013,-1529 847.013,-1529 847.013,-1529 467.465,-1529 467.465,-1529 461.465,-1529 455.465,-1523 455.465,-1517 455.465,-1517 455.465,-1248 455.465,-1248 455.465,-1242 461.465,-1236 467.465,-1236"/>
<text text-anchor="middle" x="657.239" y="-1516.2" font-family="Times,serif" font-size="11.00" fill="gray">Loader</text>
</g>
<g id="clust10" class="cluster"><title>cluster_\LiftKit\Loader\File</title>
<path fill="none" stroke="gray" d="M475.465,-1244C475.465,-1244 839.013,-1244 839.013,-1244 845.013,-1244 851.013,-1250 851.013,-1256 851.013,-1256 851.013,-1490 851.013,-1490 851.013,-1496 845.013,-1502 839.013,-1502 839.013,-1502 475.465,-1502 475.465,-1502 469.465,-1502 463.465,-1496 463.465,-1490 463.465,-1490 463.465,-1256 463.465,-1256 463.465,-1250 469.465,-1244 475.465,-1244"/>
<text text-anchor="middle" x="657.239" y="-1489.2" font-family="Times,serif" font-size="11.00" fill="gray">File</text>
</g>
<g id="clust11" class="cluster"><title>cluster_\LiftKit\Loader\File\Exception</title>
<path fill="none" stroke="gray" d="M723.996,-1252C723.996,-1252 831.013,-1252 831.013,-1252 837.013,-1252 843.013,-1258 843.013,-1264 843.013,-1264 843.013,-1311 843.013,-1311 843.013,-1317 837.013,-1323 831.013,-1323 831.013,-1323 723.996,-1323 723.996,-1323 717.996,-1323 711.996,-1317 711.996,-1311 711.996,-1311 711.996,-1264 711.996,-1264 711.996,-1258 717.996,-1252 723.996,-1252"/>
<text text-anchor="middle" x="777.505" y="-1310.2" font-family="Times,serif" font-size="11.00" fill="gray">Exception</text>
</g>
<g id="clust12" class="cluster"><title>cluster_\LiftKit\Module</title>
<path fill="none" stroke="gray" d="M699.494,-193C699.494,-193 855.515,-193 855.515,-193 861.515,-193 867.515,-199 867.515,-205 867.515,-205 867.515,-333 867.515,-333 867.515,-339 861.515,-345 855.515,-345 855.515,-345 699.494,-345 699.494,-345 693.494,-345 687.494,-339 687.494,-333 687.494,-333 687.494,-205 687.494,-205 687.494,-199 693.494,-193 699.494,-193"/>
<text text-anchor="middle" x="777.505" y="-332.2" font-family="Times,serif" font-size="11.00" fill="gray">Module</text>
</g>
<g id="clust13" class="cluster"><title>cluster_\LiftKit\Module\Exception</title>
<path fill="none" stroke="gray" d="M707.494,-247C707.494,-247 847.515,-247 847.515,-247 853.515,-247 859.515,-253 859.515,-259 859.515,-259 859.515,-306 859.515,-306 859.515,-312 853.515,-318 847.515,-318 847.515,-318 707.494,-318 707.494,-318 701.494,-318 695.494,-312 695.494,-306 695.494,-306 695.494,-259 695.494,-259 695.494,-253 701.494,-247 707.494,-247"/>
<text text-anchor="middle" x="777.505" y="-305.2" font-family="Times,serif" font-size="11.00" fill="gray">Exception</text>
</g>
<g id="clust15" class="cluster"><title>cluster_\LiftKit\Response</title>
<path fill="none" stroke="gray" d="M475.465,-970C475.465,-970 842.313,-970 842.313,-970 848.313,-970 854.313,-976 854.313,-982 854.313,-982 854.313,-1216 854.313,-1216 854.313,-1222 848.313,-1228 842.313,-1228 842.313,-1228 475.465,-1228 475.465,-1228 469.465,-1228 463.465,-1222 463.465,-1216 463.465,-1216 463.465,-982 463.465,-982 463.465,-976 469.465,-970 475.465,-970"/>
<text text-anchor="middle" x="658.889" y="-1215.2" font-family="Times,serif" font-size="11.00" fill="gray">Response</text>
</g>
<g id="clust16" class="cluster"><title>cluster_\LiftKit\Response\Exception</title>
<path fill="none" stroke="gray" d="M720.696,-978C720.696,-978 834.313,-978 834.313,-978 840.313,-978 846.313,-984 846.313,-990 846.313,-990 846.313,-1037 846.313,-1037 846.313,-1043 840.313,-1049 834.313,-1049 834.313,-1049 720.696,-1049 720.696,-1049 714.696,-1049 708.696,-1043 708.696,-1037 708.696,-1037 708.696,-990 708.696,-990 708.696,-984 714.696,-978 720.696,-978"/>
<text text-anchor="middle" x="777.505" y="-1036.2" font-family="Times,serif" font-size="11.00" fill="gray">Exception</text>
</g>
<g id="clust17" class="cluster"><title>cluster_\LiftKit\Router</title>
<path fill="none" stroke="gray" d="M36,-432C36,-432 861.614,-432 861.614,-432 867.614,-432 873.614,-438 873.614,-444 873.614,-444 873.614,-950 873.614,-950 873.614,-956 867.614,-962 861.614,-962 861.614,-962 36,-962 36,-962 30,-962 24,-956 24,-950 24,-950 24,-444 24,-444 24,-438 30,-432 36,-432"/>
<text text-anchor="middle" x="448.807" y="-949.2" font-family="Times,serif" font-size="11.00" fill="gray">Router</text>
</g>
<g id="clust18" class="cluster"><title>cluster_\LiftKit\Router\Exception</title>
<path fill="none" stroke="gray" d="M723.996,-440C723.996,-440 831.013,-440 831.013,-440 837.013,-440 843.013,-446 843.013,-452 843.013,-452 843.013,-499 843.013,-499 843.013,-505 837.013,-511 831.013,-511 831.013,-511 723.996,-511 723.996,-511 717.996,-511 711.996,-505 711.996,-499 711.996,-499 711.996,-452 711.996,-452 711.996,-446 717.996,-440 723.996,-440"/>
<text text-anchor="middle" x="777.505" y="-498.2" font-family="Times,serif" font-size="11.00" fill="gray">Exception</text>
</g>
<g id="clust19" class="cluster"><title>cluster_\LiftKit\Router\Route</title>
<path fill="none" stroke="gray" d="M44,-563C44,-563 853.614,-563 853.614,-563 859.614,-563 865.614,-569 865.614,-575 865.614,-575 865.614,-923 865.614,-923 865.614,-929 859.614,-935 853.614,-935 853.614,-935 44,-935 44,-935 38,-935 32,-929 32,-923 32,-923 32,-575 32,-575 32,-569 38,-563 44,-563"/>
<text text-anchor="middle" x="448.807" y="-922.2" font-family="Times,serif" font-size="11.00" fill="gray">Route</text>
</g>
<g id="clust20" class="cluster"><title>cluster_\LiftKit\Router\Route\Exception</title>
<path fill="none" stroke="gray" d="M754.505,-571C754.505,-571 800.505,-571 800.505,-571 806.505,-571 812.505,-577 812.505,-583 812.505,-583 812.505,-630 812.505,-630 812.505,-636 806.505,-642 800.505,-642 800.505,-642 754.505,-642 754.505,-642 748.505,-642 742.505,-636 742.505,-630 742.505,-630 742.505,-583 742.505,-583 742.505,-577 748.505,-571 754.505,-571"/>
<text text-anchor="middle" x="777.505" y="-629.2" font-family="Times,serif" font-size="11.00" fill="gray">Exception</text>
</g>
<g id="clust21" class="cluster"><title>cluster_\LiftKit\Router\Route\Http</title>
<path fill="none" stroke="gray" d="M208.368,-650C208.368,-650 845.614,-650 845.614,-650 851.614,-650 857.614,-656 857.614,-662 857.614,-662 857.614,-896 857.614,-896 857.614,-902 851.614,-908 845.614,-908 845.614,-908 208.368,-908 208.368,-908 202.368,-908 196.368,-902 196.368,-896 196.368,-896 196.368,-662 196.368,-662 196.368,-656 202.368,-650 208.368,-650"/>
<text text-anchor="middle" x="526.991" y="-895.2" font-family="Times,serif" font-size="11.00" fill="gray">Http</text>
</g>
<g id="clust22" class="cluster"><title>cluster_\LiftKit\Router\Route\Http\Rest</title>
<path fill="none" stroke="gray" d="M475.465,-756C475.465,-756 837.614,-756 837.614,-756 843.614,-756 849.614,-762 849.614,-768 849.614,-768 849.614,-869 849.614,-869 849.614,-875 843.614,-881 837.614,-881 837.614,-881 475.465,-881 475.465,-881 469.465,-881 463.465,-875 463.465,-869 463.465,-869 463.465,-768 463.465,-768 463.465,-762 469.465,-756 475.465,-756"/>
<text text-anchor="middle" x="656.539" y="-868.2" font-family="Times,serif" font-size="11.00" fill="gray">Rest</text>
</g>
<g id="clust14" class="cluster"><title>cluster_\LiftKit\Request</title>
<path fill="none" stroke="gray" d="M475.465,-353C475.465,-353 800.505,-353 800.505,-353 806.505,-353 812.505,-359 812.505,-365 812.505,-365 812.505,-412 812.505,-412 812.505,-418 806.505,-424 800.505,-424 800.505,-424 475.465,-424 475.465,-424 469.465,-424 463.465,-418 463.465,-412 463.465,-412 463.465,-365 463.465,-365 463.465,-359 469.465,-353 475.465,-353"/>
<text text-anchor="middle" x="637.985" y="-411.2" font-family="Times,serif" font-size="11.00" fill="gray">Request</text>
</g>
<!-- \\LiftKit\\Application\\Exception\\InvalidHookIdentifier -->
<g id="node1" class="node"><title>\\LiftKit\\Application\\Exception\\InvalidHookIdentifier</title>
<polygon fill="none" stroke="black" points="854.628,-1901 700.382,-1901 700.382,-1865 854.628,-1865 854.628,-1901"/>
<text text-anchor="middle" x="777.505" y="-1879.7" font-family="Courier,monospace" font-size="11.00">InvalidHookIdentifier</text>
</g>
<!-- \\Exception -->
<g id="node39" class="node"><title>\\Exception</title>
<ellipse fill="none" stroke="black" cx="512.47" cy="-72" rx="48.3341" ry="18"/>
<text text-anchor="middle" x="512.47" y="-67.8" font-family="Times,serif" font-size="14.00" fill="gray">\Exception</text>
</g>
<!-- \\LiftKit\\Application\\Exception\\InvalidHookIdentifier&#45;&gt;\\Exception -->
<g id="edge1" class="edge"><title>\\LiftKit\\Application\\Exception\\InvalidHookIdentifier&#45;&gt;\\Exception</title>
<path fill="none" stroke="black" d="M700.154,-1867.64C695.363,-1864.44 691.048,-1860.6 687.494,-1856 585.042,-1723.39 664.107,-512.68 628.193,-349 607.015,-252.479 554.157,-146.781 528.252,-98.5975"/>
<polygon fill="none" stroke="black" points="531.294,-96.8662 523.447,-89.7474 525.142,-100.206 531.294,-96.8662"/>
</g>
<!-- \\LiftKit\\Application\\Exception\\ReregisterHook -->
<g id="node2" class="node"><title>\\LiftKit\\Application\\Exception\\ReregisterHook</title>
<polygon fill="none" stroke="black" points="831.92,-1847 723.089,-1847 723.089,-1811 831.92,-1811 831.92,-1847"/>
<text text-anchor="middle" x="777.505" y="-1825.7" font-family="Courier,monospace" font-size="11.00">ReregisterHook</text>
</g>
<!-- \\LiftKit\\Application\\Exception\\ReregisterHook&#45;&gt;\\Exception -->
<g id="edge2" class="edge"><title>\\LiftKit\\Application\\Exception\\ReregisterHook&#45;&gt;\\Exception</title>
<path fill="none" stroke="black" d="M723.261,-1827.03C709.638,-1823.84 696.352,-1817.85 687.494,-1807 584.97,-1681.4 663.046,-507.344 628.193,-349 606.951,-252.493 554.124,-146.789 528.239,-98.6003"/>
<polygon fill="none" stroke="black" points="531.283,-96.8711 523.439,-89.7494 525.13,-100.208 531.283,-96.8711"/>
</g>
<!-- \\LiftKit\\Application\\Exception\\UnregisteredHook -->
<g id="node3" class="node"><title>\\LiftKit\\Application\\Exception\\UnregisteredHook</title>
<polygon fill="none" stroke="black" points="838.122,-1955 716.887,-1955 716.887,-1919 838.122,-1919 838.122,-1955"/>
<text text-anchor="middle" x="777.505" y="-1933.7" font-family="Courier,monospace" font-size="11.00">UnregisteredHook</text>
</g>
<!-- \\LiftKit\\Application\\Exception\\UnregisteredHook&#45;&gt;\\Exception -->
<g id="edge3" class="edge"><title>\\LiftKit\\Application\\Exception\\UnregisteredHook&#45;&gt;\\Exception</title>
<path fill="none" stroke="black" d="M716.575,-1929.81C705.31,-1925.71 694.793,-1919.46 687.494,-1910 581.47,-1772.58 665.277,-518.562 628.193,-349 607.081,-252.465 554.191,-146.774 528.265,-98.5947"/>
<polygon fill="none" stroke="black" points="531.306,-96.8611 523.457,-89.7454 525.156,-100.203 531.306,-96.8611"/>
</g>
<!-- \\LiftKit\\Application\\Hook\\Action -->
<g id="node4" class="node"><title>\\LiftKit\\Application\\Hook\\Action</title>
<polygon fill="none" stroke="black" points="805.112,-2088 749.897,-2088 749.897,-2052 805.112,-2052 805.112,-2088"/>
<text text-anchor="middle" x="777.505" y="-2066.7" font-family="Courier,monospace" font-size="11.00">Action</text>
</g>
<!-- \\LiftKit\\Application\\Hook\\Hook -->
<g id="node6" class="node"><title>\\LiftKit\\Application\\Hook\\Hook</title>
<polygon fill="none" stroke="black" points="553.481,-2061 471.459,-2061 471.459,-2025 553.481,-2025 553.481,-2061"/>
<text text-anchor="start" x="479.465" y="-2045.2" font-family="Courier,monospace" font-size="11.00">«abstract»</text>
<text text-anchor="start" x="499.268" y="-2034.2" font-family="Courier,monospace" font-size="11.00">Hook</text>
</g>
<!-- \\LiftKit\\Application\\Hook\\Action&#45;&gt;\\LiftKit\\Application\\Hook\\Hook -->
<g id="edge4" class="edge"><title>\\LiftKit\\Application\\Hook\\Action&#45;&gt;\\LiftKit\\Application\\Hook\\Hook</title>
<path fill="none" stroke="black" d="M749.836,-2067.26C706.31,-2062.79 619.306,-2053.86 563.864,-2048.17"/>
<polygon fill="none" stroke="black" points="564.201,-2044.69 553.896,-2047.15 563.487,-2051.65 564.201,-2044.69"/>
</g>
<!-- \\LiftKit\\Application\\Hook\\Event -->
<g id="node5" class="node"><title>\\LiftKit\\Application\\Hook\\Event</title>
<polygon fill="none" stroke="black" points="804.505,-2034 750.505,-2034 750.505,-1998 804.505,-1998 804.505,-2034"/>
<text text-anchor="middle" x="777.505" y="-2012.7" font-family="Courier,monospace" font-size="11.00">Event</text>
</g>
<!-- \\LiftKit\\Application\\Hook\\Event&#45;&gt;\\LiftKit\\Application\\Hook\\Hook -->
<g id="edge5" class="edge"><title>\\LiftKit\\Application\\Hook\\Event&#45;&gt;\\LiftKit\\Application\\Hook\\Hook</title>
<path fill="none" stroke="black" d="M750.322,-2018.69C706.895,-2023.15 619.247,-2032.14 563.61,-2037.85"/>
<polygon fill="none" stroke="black" points="563.202,-2034.38 553.612,-2038.88 563.917,-2041.34 563.202,-2034.38"/>
</g>
<!-- \\LiftKit\\Application\\Application -->
<g id="node7" class="node"><title>\\LiftKit\\Application\\Application</title>
<polygon fill="none" stroke="black" points="821.617,-1793 733.392,-1793 733.392,-1757 821.617,-1757 821.617,-1793"/>
<text text-anchor="middle" x="777.505" y="-1771.7" font-family="Courier,monospace" font-size="11.00">Application</text>
</g>
<!-- \\LiftKit\\Config\\Config -->
<g id="node8" class="node"><title>\\LiftKit\\Config\\Config</title>
<polygon fill="none" stroke="black" points="805.112,-158 749.897,-158 749.897,-122 805.112,-122 805.112,-158"/>
<text text-anchor="middle" x="777.505" y="-136.7" font-family="Courier,monospace" font-size="11.00">Config</text>
</g>
<!-- \\LiftKit\\Collection\\Collection -->
<g id="node40" class="node"><title>\\LiftKit\\Collection\\Collection</title>
<ellipse fill="none" stroke="black" cx="512.47" cy="-18" rx="115.947" ry="18"/>
<text text-anchor="middle" x="512.47" y="-13.8" font-family="Times,serif" font-size="14.00" fill="gray">\LiftKit\Collection\Collection</text>
</g>
<!-- \\LiftKit\\Config\\Config&#45;&gt;\\LiftKit\\Collection\\Collection -->
<g id="edge6" class="edge"><title>\\LiftKit\\Config\\Config&#45;&gt;\\LiftKit\\Collection\\Collection</title>
<path fill="none" stroke="black" d="M753.745,-121.9C725.758,-100.507 676.064,-65.263 628.193,-45 618.626,-40.9503 608.341,-37.4449 597.999,-34.4273"/>
<polygon fill="none" stroke="black" points="598.66,-30.9785 588.088,-31.6816 596.791,-37.7244 598.66,-30.9785"/>
</g>
<!-- \\LiftKit\\Controller\\Exception\\InvalidMethod -->
<g id="node9" class="node"><title>\\LiftKit\\Controller\\Exception\\InvalidMethod</title>
<polygon fill="none" stroke="black" points="828.319,-1643 726.69,-1643 726.69,-1607 828.319,-1607 828.319,-1643"/>
<text text-anchor="middle" x="777.505" y="-1621.7" font-family="Courier,monospace" font-size="11.00">InvalidMethod</text>
</g>
<!-- \\LiftKit\\Controller\\Exception\\InvalidMethod&#45;&gt;\\Exception -->
<g id="edge7" class="edge"><title>\\LiftKit\\Controller\\Exception\\InvalidMethod&#45;&gt;\\Exception</title>
<path fill="none" stroke="black" d="M726.357,-1620.75C711.611,-1616.94 696.922,-1610.1 687.494,-1598 602.107,-1488.4 658.52,-484.584 628.193,-349 606.624,-252.566 553.955,-146.826 528.173,-98.6149"/>
<polygon fill="none" stroke="black" points="531.223,-96.8965 523.393,-89.7595 525.063,-100.222 531.223,-96.8965"/>
</g>
<!-- \\LiftKit\\Controller\\Exception\\InvalidResponse -->
<g id="node10" class="node"><title>\\LiftKit\\Controller\\Exception\\InvalidResponse</title>
<polygon fill="none" stroke="black" points="835.021,-1589 719.988,-1589 719.988,-1553 835.021,-1553 835.021,-1589"/>
<text text-anchor="middle" x="777.505" y="-1567.7" font-family="Courier,monospace" font-size="11.00">InvalidResponse</text>
</g>
<!-- \\LiftKit\\Controller\\Exception\\InvalidResponse&#45;&gt;\\Exception -->
<g id="edge8" class="edge"><title>\\LiftKit\\Controller\\Exception\\InvalidResponse&#45;&gt;\\Exception</title>
<path fill="none" stroke="black" d="M737.539,-1552.83C718.993,-1542 698.505,-1526.37 687.494,-1506 565.054,-1279.53 684.862,-600.134 628.193,-349 606.442,-252.607 553.861,-146.847 528.137,-98.6231"/>
<polygon fill="none" stroke="black" points="531.19,-96.9106 523.367,-89.7652 525.027,-100.229 531.19,-96.9106"/>
</g>
<!-- \\LiftKit\\Controller\\Controller -->
<g id="node11" class="node"><title>\\LiftKit\\Controller\\Controller</title>
<polygon fill="none" stroke="black" points="553.481,-1660 471.459,-1660 471.459,-1624 553.481,-1624 553.481,-1660"/>
<text text-anchor="start" x="479.465" y="-1644.2" font-family="Courier,monospace" font-size="11.00">«abstract»</text>
<text text-anchor="start" x="479.465" y="-1633.2" font-family="Courier,monospace" font-size="11.00">Controller</text>
</g>
<!-- \\LiftKit\\Controller\\Rest -->
<g id="node12" class="node"><title>\\LiftKit\\Controller\\Rest</title>
<polygon fill="none" stroke="black" points="818.515,-1714 736.494,-1714 736.494,-1678 818.515,-1678 818.515,-1714"/>
<text text-anchor="start" x="744.499" y="-1698.2" font-family="Courier,monospace" font-size="11.00">«abstract»</text>
<text text-anchor="start" x="764.302" y="-1687.2" font-family="Courier,monospace" font-size="11.00">Rest</text>
</g>
<!-- \\LiftKit\\Controller\\Rest&#45;&gt;\\LiftKit\\Controller\\Controller -->
<g id="edge9" class="edge"><title>\\LiftKit\\Controller\\Rest&#45;&gt;\\LiftKit\\Controller\\Controller</title>
<path fill="none" stroke="black" d="M736.269,-1687.74C689.953,-1678.23 613.835,-1662.6 563.679,-1652.31"/>
<polygon fill="none" stroke="black" points="564.201,-1648.84 553.701,-1650.26 562.793,-1655.7 564.201,-1648.84"/>
</g>
<!-- \\LiftKit\\Controller\\RestInterface -->
<g id="node13" class="node"><title>\\LiftKit\\Controller\\RestInterface</title>
<polygon fill="none" stroke="black" points="563.284,-1714 461.656,-1714 461.656,-1678 563.284,-1678 563.284,-1714"/>
<text text-anchor="middle" x="512.47" y="-1692.7" font-family="Courier,monospace" font-size="11.00">RestInterface</text>
</g>
<!-- \\LiftKit\\Controller\\Rest&#45;&gt;\\LiftKit\\Controller\\RestInterface -->
<g id="edge10" class="edge"><title>\\LiftKit\\Controller\\Rest&#45;&gt;\\LiftKit\\Controller\\RestInterface</title>
<path fill="none" stroke="black" stroke-dasharray="1,5" d="M736.269,-1696C692.916,-1696 623.449,-1696 573.606,-1696"/>
<polygon fill="none" stroke="black" points="573.599,-1692.5 563.599,-1696 573.599,-1699.5 573.599,-1692.5"/>
</g>
<!-- \\LiftKit\\Loader\\File\\Exception\\NonexistentFile -->
<g id="node14" class="node"><title>\\LiftKit\\Loader\\File\\Exception\\NonexistentFile</title>
<polygon fill="none" stroke="black" points="835.021,-1296 719.988,-1296 719.988,-1260 835.021,-1260 835.021,-1296"/>
<text text-anchor="middle" x="777.505" y="-1274.7" font-family="Courier,monospace" font-size="11.00">NonexistentFile</text>
</g>
<!-- \\LiftKit\\Loader\\File\\Exception\\NonexistentFile&#45;&gt;\\Exception -->
<g id="edge12" class="edge"><title>\\LiftKit\\Loader\\File\\Exception\\NonexistentFile&#45;&gt;\\Exception</title>
<path fill="none" stroke="black" d="M720.344,-1259.91C707.551,-1253.15 695.411,-1244.07 687.494,-1232 579.646,-1067.54 673.001,-540.492 628.193,-349 605.679,-252.782 553.466,-146.938 527.984,-98.6582"/>
<polygon fill="none" stroke="black" points="531.051,-96.9707 523.261,-89.7897 524.872,-100.261 531.051,-96.9707"/>
</g>
<!-- \\LiftKit\\Loader\\File\\Config -->
<g id="node15" class="node"><title>\\LiftKit\\Loader\\File\\Config</title>
<polygon fill="none" stroke="black" points="805.112,-1475 749.897,-1475 749.897,-1439 805.112,-1439 805.112,-1475"/>
<text text-anchor="middle" x="777.505" y="-1453.7" font-family="Courier,monospace" font-size="11.00">Config</text>
</g>
<!-- \\LiftKit\\Loader\\File\\Loader -->
<g id="node16" class="node"><title>\\LiftKit\\Loader\\File\\Loader</title>
<polygon fill="none" stroke="black" points="553.481,-1421 471.459,-1421 471.459,-1385 553.481,-1385 553.481,-1421"/>
<text text-anchor="start" x="479.465" y="-1405.2" font-family="Courier,monospace" font-size="11.00">«abstract»</text>
<text text-anchor="start" x="492.667" y="-1394.2" font-family="Courier,monospace" font-size="11.00">Loader</text>
</g>
<!-- \\LiftKit\\Loader\\File\\Config&#45;&gt;\\LiftKit\\Loader\\File\\Loader -->
<g id="edge11" class="edge"><title>\\LiftKit\\Loader\\File\\Config&#45;&gt;\\LiftKit\\Loader\\File\\Loader</title>
<path fill="none" stroke="black" d="M749.836,-1451.53C706.31,-1442.59 619.306,-1424.73 563.864,-1413.35"/>
<polygon fill="none" stroke="black" points="564.396,-1409.88 553.896,-1411.3 562.988,-1416.74 564.396,-1409.88"/>
</g>
<!-- \\LiftKit\\Loader\\File\\Script -->
<g id="node17" class="node"><title>\\LiftKit\\Loader\\File\\Script</title>
<polygon fill="none" stroke="black" points="805.112,-1421 749.897,-1421 749.897,-1385 805.112,-1385 805.112,-1421"/>
<text text-anchor="middle" x="777.505" y="-1399.7" font-family="Courier,monospace" font-size="11.00">Script</text>
</g>
<!-- \\LiftKit\\Loader\\File\\Script&#45;&gt;\\LiftKit\\Loader\\File\\Loader -->
<g id="edge13" class="edge"><title>\\LiftKit\\Loader\\File\\Script&#45;&gt;\\LiftKit\\Loader\\File\\Loader</title>
<path fill="none" stroke="black" d="M749.836,-1403C706.4,-1403 619.667,-1403 564.209,-1403"/>
<polygon fill="none" stroke="black" points="563.896,-1399.5 553.896,-1403 563.896,-1406.5 563.896,-1399.5"/>
</g>
<!-- \\LiftKit\\Loader\\File\\View -->
<g id="node18" class="node"><title>\\LiftKit\\Loader\\File\\View</title>
<polygon fill="none" stroke="black" points="804.505,-1367 750.505,-1367 750.505,-1331 804.505,-1331 804.505,-1367"/>
<text text-anchor="middle" x="777.505" y="-1345.7" font-family="Courier,monospace" font-size="11.00">View</text>
</g>
<!-- \\LiftKit\\Loader\\File\\View&#45;&gt;\\LiftKit\\Loader\\File\\Loader -->
<g id="edge14" class="edge"><title>\\LiftKit\\Loader\\File\\View&#45;&gt;\\LiftKit\\Loader\\File\\Loader</title>
<path fill="none" stroke="black" d="M750.322,-1354.38C706.895,-1363.29 619.247,-1381.28 563.61,-1392.71"/>
<polygon fill="none" stroke="black" points="562.703,-1389.32 553.612,-1394.76 564.111,-1396.18 562.703,-1389.32"/>
</g>
<!-- \\LiftKit\\Module\\Exception\\NonexistentSubModule -->
<g id="node19" class="node"><title>\\LiftKit\\Module\\Exception\\NonexistentSubModule</title>
<polygon fill="none" stroke="black" points="851.526,-291 703.483,-291 703.483,-255 851.526,-255 851.526,-291"/>
<text text-anchor="middle" x="777.505" y="-269.7" font-family="Courier,monospace" font-size="11.00">NonexistentSubModule</text>
</g>
<!-- \\LiftKit\\Module\\Exception\\NonexistentSubModule&#45;&gt;\\Exception -->
<g id="edge15" class="edge"><title>\\LiftKit\\Module\\Exception\\NonexistentSubModule&#45;&gt;\\Exception</title>
<path fill="none" stroke="black" d="M703.292,-258.501C697.797,-256.337 692.464,-253.852 687.494,-251 618.816,-211.596 559.537,-137.277 531.216,-97.9397"/>
<polygon fill="none" stroke="black" points="533.972,-95.7754 525.331,-89.6451 528.263,-99.8261 533.972,-95.7754"/>
</g>
<!-- \\LiftKit\\Module\\Module -->
<g id="node20" class="node"><title>\\LiftKit\\Module\\Module</title>
<polygon fill="none" stroke="black" points="818.515,-237 736.494,-237 736.494,-201 818.515,-201 818.515,-237"/>
<text text-anchor="start" x="744.499" y="-221.2" font-family="Courier,monospace" font-size="11.00">«abstract»</text>
<text text-anchor="start" x="757.701" y="-210.2" font-family="Courier,monospace" font-size="11.00">Module</text>
</g>
<!-- \\LiftKit\\Request\\Http -->
<g id="node21" class="node"><title>\\LiftKit\\Request\\Http</title>
<polygon fill="none" stroke="black" points="804.505,-397 750.505,-397 750.505,-361 804.505,-361 804.505,-397"/>
<text text-anchor="middle" x="777.505" y="-375.7" font-family="Courier,monospace" font-size="11.00">Http</text>
</g>
<!-- \\LiftKit\\Request\\Request -->
<g id="node22" class="node"><title>\\LiftKit\\Request\\Request</title>
<polygon fill="none" stroke="black" points="553.481,-397 471.459,-397 471.459,-361 553.481,-361 553.481,-397"/>
<text text-anchor="start" x="479.465" y="-381.2" font-family="Courier,monospace" font-size="11.00">«abstract»</text>
<text text-anchor="start" x="489.366" y="-370.2" font-family="Courier,monospace" font-size="11.00">Request</text>
</g>
<!-- \\LiftKit\\Request\\Http&#45;&gt;\\LiftKit\\Request\\Request -->
<g id="edge16" class="edge"><title>\\LiftKit\\Request\\Http&#45;&gt;\\LiftKit\\Request\\Request</title>
<path fill="none" stroke="black" d="M750.322,-379C706.985,-379 619.611,-379 563.957,-379"/>
<polygon fill="none" stroke="black" points="563.612,-375.5 553.612,-379 563.612,-382.5 563.612,-375.5"/>
</g>
<!-- \\LiftKit\\Input\\Input -->
<g id="node41" class="node"><title>\\LiftKit\\Input\\Input</title>
<ellipse fill="none" stroke="black" cx="245.373" cy="-72" rx="79.2471" ry="18"/>
<text text-anchor="middle" x="245.373" y="-67.8" font-family="Times,serif" font-size="14.00" fill="gray">\LiftKit\Input\Input</text>
</g>
<!-- \\LiftKit\\Request\\Request&#45;&gt;\\LiftKit\\Input\\Input -->
<g id="edge17" class="edge"><title>\\LiftKit\\Request\\Request&#45;&gt;\\LiftKit\\Input\\Input</title>
<path fill="none" stroke="black" d="M495.681,-360.715C450.543,-308.442 320.849,-158.248 268.591,-97.7293"/>
<polygon fill="none" stroke="black" points="270.932,-95.0857 261.748,-89.8045 265.634,-99.6607 270.932,-95.0857"/>
</g>
<!-- \\LiftKit\\Response\\Exception\\ViewFileNotFound -->
<g id="node23" class="node"><title>\\LiftKit\\Response\\Exception\\ViewFileNotFound</title>
<polygon fill="none" stroke="black" points="838.122,-1022 716.887,-1022 716.887,-986 838.122,-986 838.122,-1022"/>
<text text-anchor="middle" x="777.505" y="-1000.7" font-family="Courier,monospace" font-size="11.00">ViewFileNotFound</text>
</g>
<!-- \\LiftKit\\Response\\Exception\\ViewFileNotFound&#45;&gt;\\Exception -->
<g id="edge18" class="edge"><title>\\LiftKit\\Response\\Exception\\ViewFileNotFound&#45;&gt;\\Exception</title>
<path fill="none" stroke="black" d="M757.827,-985.773C736.775,-963.964 703.418,-925.312 687.494,-885 599.44,-662.085 687.82,-581.14 628.193,-349 603.61,-253.29 552.397,-147.2 527.569,-98.76"/>
<polygon fill="none" stroke="black" points="530.671,-97.1384 522.971,-89.8607 524.452,-100.352 530.671,-97.1384"/>
</g>
<!-- \\LiftKit\\Response\\Json -->
<g id="node24" class="node"><title>\\LiftKit\\Response\\Json</title>
<polygon fill="none" stroke="black" points="804.505,-1201 750.505,-1201 750.505,-1165 804.505,-1165 804.505,-1201"/>
<text text-anchor="middle" x="777.505" y="-1179.7" font-family="Courier,monospace" font-size="11.00">Json</text>
</g>
<!-- \\LiftKit\\Response\\Response -->
<g id="node25" class="node"><title>\\LiftKit\\Response\\Response</title>
<polygon fill="none" stroke="black" points="553.481,-1147 471.459,-1147 471.459,-1111 553.481,-1111 553.481,-1147"/>
<text text-anchor="start" x="479.465" y="-1131.2" font-family="Courier,monospace" font-size="11.00">«abstract»</text>
<text text-anchor="start" x="486.066" y="-1120.2" font-family="Courier,monospace" font-size="11.00">Response</text>
</g>
<!-- \\LiftKit\\Response\\Json&#45;&gt;\\LiftKit\\Response\\Response -->
<g id="edge19" class="edge"><title>\\LiftKit\\Response\\Json&#45;&gt;\\LiftKit\\Response\\Response</title>
<path fill="none" stroke="black" d="M750.322,-1177.62C706.895,-1168.71 619.247,-1150.72 563.61,-1139.29"/>
<polygon fill="none" stroke="black" points="564.111,-1135.82 553.612,-1137.24 562.703,-1142.68 564.111,-1135.82"/>
</g>
<!-- \\LiftKit\\Response\\String -->
<g id="node26" class="node"><title>\\LiftKit\\Response\\String</title>
<polygon fill="none" stroke="black" points="805.112,-1147 749.897,-1147 749.897,-1111 805.112,-1111 805.112,-1147"/>
<text text-anchor="middle" x="777.505" y="-1125.7" font-family="Courier,monospace" font-size="11.00">String</text>
</g>
<!-- \\LiftKit\\Response\\String&#45;&gt;\\LiftKit\\Response\\Response -->
<g id="edge20" class="edge"><title>\\LiftKit\\Response\\String&#45;&gt;\\LiftKit\\Response\\Response</title>
<path fill="none" stroke="black" d="M749.836,-1129C706.4,-1129 619.667,-1129 564.209,-1129"/>
<polygon fill="none" stroke="black" points="563.896,-1125.5 553.896,-1129 563.896,-1132.5 563.896,-1125.5"/>
</g>
<!-- \\LiftKit\\Response\\View -->
<g id="node27" class="node"><title>\\LiftKit\\Response\\View</title>
<polygon fill="none" stroke="black" points="804.505,-1093 750.505,-1093 750.505,-1057 804.505,-1057 804.505,-1093"/>
<text text-anchor="middle" x="777.505" y="-1071.7" font-family="Courier,monospace" font-size="11.00">View</text>
</g>
<!-- \\LiftKit\\Response\\View&#45;&gt;\\LiftKit\\Response\\Response -->
<g id="edge21" class="edge"><title>\\LiftKit\\Response\\View&#45;&gt;\\LiftKit\\Response\\Response</title>
<path fill="none" stroke="black" d="M750.322,-1080.38C706.895,-1089.29 619.247,-1107.28 563.61,-1118.71"/>
<polygon fill="none" stroke="black" points="562.703,-1115.32 553.612,-1120.76 564.111,-1122.18 562.703,-1115.32"/>
</g>
<!-- \\LiftKit\\Router\\Exception\\NoMatchingRoute -->
<g id="node28" class="node"><title>\\LiftKit\\Router\\Exception\\NoMatchingRoute</title>
<polygon fill="none" stroke="black" points="835.021,-484 719.988,-484 719.988,-448 835.021,-448 835.021,-484"/>
<text text-anchor="middle" x="777.505" y="-462.7" font-family="Courier,monospace" font-size="11.00">NoMatchingRoute</text>
</g>
<!-- \\LiftKit\\Router\\Exception\\NoMatchingRoute&#45;&gt;\\Exception -->
<g id="edge22" class="edge"><title>\\LiftKit\\Router\\Exception\\NoMatchingRoute&#45;&gt;\\Exception</title>
<path fill="none" stroke="black" d="M719.638,-448.891C708.053,-443.536 696.63,-436.68 687.494,-428 635.573,-378.671 552.996,-174.098 523.973,-99.4329"/>
<polygon fill="none" stroke="black" points="527.114,-97.8526 520.241,-89.7892 520.586,-100.378 527.114,-97.8526"/>
</g>
<!-- \\LiftKit\\Router\\Route\\Exception\\Route -->
<g id="node29" class="node"><title>\\LiftKit\\Router\\Route\\Exception\\Route</title>
<polygon fill="none" stroke="black" points="804.505,-615 750.505,-615 750.505,-579 804.505,-579 804.505,-615"/>
<text text-anchor="middle" x="777.505" y="-593.7" font-family="Courier,monospace" font-size="11.00">Route</text>
</g>
<!-- \\LiftKit\\Router\\Route\\Exception\\Route&#45;&gt;\\Exception -->
<g id="edge24" class="edge"><title>\\LiftKit\\Router\\Route\\Exception\\Route&#45;&gt;\\Exception</title>
<path fill="none" stroke="black" d="M750.493,-597.342C730.668,-596.177 704.045,-591.316 687.494,-575 613.541,-502.098 661.316,-447.421 628.193,-349 596.663,-255.309 548.776,-148.181 526.154,-99.1155"/>
<polygon fill="none" stroke="black" points="529.23,-97.4285 521.852,-89.8249 522.878,-100.37 529.23,-97.4285"/>
</g>
<!-- \\LiftKit\\Router\\Route\\Http\\Rest\\Controller -->
<g id="node30" class="node"><title>\\LiftKit\\Router\\Route\\Http\\Rest\\Controller</title>
<polygon fill="none" stroke="black" points="818.515,-854 736.494,-854 736.494,-818 818.515,-818 818.515,-854"/>
<text text-anchor="middle" x="777.505" y="-832.7" font-family="Courier,monospace" font-size="11.00">Controller</text>
</g>
<!-- \\LiftKit\\Router\\Route\\Http\\Rest\\Rest -->
<g id="node32" class="node"><title>\\LiftKit\\Router\\Route\\Http\\Rest\\Rest</title>
<polygon fill="none" stroke="black" points="553.481,-802 471.459,-802 471.459,-766 553.481,-766 553.481,-802"/>
<text text-anchor="start" x="479.465" y="-786.2" font-family="Courier,monospace" font-size="11.00">«abstract»</text>
<text text-anchor="start" x="499.268" y="-775.2" font-family="Courier,monospace" font-size="11.00">Rest</text>
</g>
<!-- \\LiftKit\\Router\\Route\\Http\\Rest\\Controller&#45;&gt;\\LiftKit\\Router\\Route\\Http\\Rest\\Rest -->
<g id="edge28" class="edge"><title>\\LiftKit\\Router\\Route\\Http\\Rest\\Controller&#45;&gt;\\LiftKit\\Router\\Route\\Http\\Rest\\Rest</title>
<path fill="none" stroke="black" d="M736.269,-828.046C689.953,-818.889 613.835,-803.841 563.679,-793.926"/>
<polygon fill="none" stroke="black" points="564.19,-790.459 553.701,-791.953 562.833,-797.326 564.19,-790.459"/>
</g>
<!-- \\LiftKit\\Router\\Route\\Http\\Rest\\ControllerFactory -->
<g id="node31" class="node"><title>\\LiftKit\\Router\\Route\\Http\\Rest\\ControllerFactory</title>
<polygon fill="none" stroke="black" points="841.723,-800 713.286,-800 713.286,-764 841.723,-764 841.723,-800"/>
<text text-anchor="middle" x="777.505" y="-778.7" font-family="Courier,monospace" font-size="11.00">ControllerFactory</text>
</g>
<!-- \\LiftKit\\Router\\Route\\Http\\Rest\\ControllerFactory&#45;&gt;\\LiftKit\\Router\\Route\\Http\\Rest\\Rest -->
<g id="edge29" class="edge"><title>\\LiftKit\\Router\\Route\\Http\\Rest\\ControllerFactory&#45;&gt;\\LiftKit\\Router\\Route\\Http\\Rest\\Rest</title>
<path fill="none" stroke="black" d="M713.167,-782.482C667.384,-782.83 606.367,-783.294 563.878,-783.617"/>
<polygon fill="none" stroke="black" points="563.738,-780.118 553.765,-783.694 563.791,-787.117 563.738,-780.118"/>
</g>
<!-- \\LiftKit\\Router\\Route\\Http\\Http -->
<g id="node35" class="node"><title>\\LiftKit\\Router\\Route\\Http\\Http</title>
<polygon fill="none" stroke="black" points="286.384,-748 204.363,-748 204.363,-712 286.384,-712 286.384,-748"/>
<text text-anchor="start" x="212.368" y="-732.2" font-family="Courier,monospace" font-size="11.00">«abstract»</text>
<text text-anchor="start" x="232.171" y="-721.2" font-family="Courier,monospace" font-size="11.00">Http</text>
</g>
<!-- \\LiftKit\\Router\\Route\\Http\\Rest\\Rest&#45;&gt;\\LiftKit\\Router\\Route\\Http\\Http -->
<g id="edge30" class="edge"><title>\\LiftKit\\Router\\Route\\Http\\Rest\\Rest&#45;&gt;\\LiftKit\\Router\\Route\\Http\\Http</title>
<path fill="none" stroke="black" d="M471.346,-776.511C449.305,-772.346 421.495,-767.006 396.747,-762 363.282,-755.231 325.715,-747.237 296.502,-740.932"/>
<polygon fill="none" stroke="black" points="297.051,-737.47 286.537,-738.777 295.571,-744.312 297.051,-737.47"/>
</g>
<!-- \\LiftKit\\Router\\Route\\Http\\Controller -->
<g id="node33" class="node"><title>\\LiftKit\\Router\\Route\\Http\\Controller</title>
<polygon fill="none" stroke="black" points="553.481,-748 471.459,-748 471.459,-712 553.481,-712 553.481,-748"/>
<text text-anchor="middle" x="512.47" y="-726.7" font-family="Courier,monospace" font-size="11.00">Controller</text>
</g>
<!-- \\LiftKit\\Router\\Route\\Http\\Controller&#45;&gt;\\LiftKit\\Router\\Route\\Http\\Http -->
<g id="edge25" class="edge"><title>\\LiftKit\\Router\\Route\\Http\\Controller&#45;&gt;\\LiftKit\\Router\\Route\\Http\\Http</title>
<path fill="none" stroke="black" d="M471.208,-730C424.457,-730 347.3,-730 296.652,-730"/>
<polygon fill="none" stroke="black" points="296.58,-726.5 286.58,-730 296.58,-733.5 296.58,-726.5"/>
</g>
<!-- \\LiftKit\\Router\\Route\\Http\\ControllerFactory -->
<g id="node34" class="node"><title>\\LiftKit\\Router\\Route\\Http\\ControllerFactory</title>
<polygon fill="none" stroke="black" points="576.689,-694 448.252,-694 448.252,-658 576.689,-658 576.689,-694"/>
<text text-anchor="middle" x="512.47" y="-672.7" font-family="Courier,monospace" font-size="11.00">ControllerFactory</text>
</g>
<!-- \\LiftKit\\Router\\Route\\Http\\ControllerFactory&#45;&gt;\\LiftKit\\Router\\Route\\Http\\Http -->
<g id="edge26" class="edge"><title>\\LiftKit\\Router\\Route\\Http\\ControllerFactory&#45;&gt;\\LiftKit\\Router\\Route\\Http\\Http</title>
<path fill="none" stroke="black" d="M448.31,-688.866C401.806,-698.338 339.434,-711.044 296.373,-719.815"/>
<polygon fill="none" stroke="black" points="295.507,-716.42 286.407,-721.845 296.904,-723.279 295.507,-716.42"/>
</g>
<!-- \\LiftKit\\Router\\Route\\Route -->
<g id="node36" class="node"><title>\\LiftKit\\Router\\Route\\Route</title>
<polygon fill="none" stroke="black" points="94,-748 40,-748 40,-712 94,-712 94,-748"/>
<text text-anchor="middle" x="67" y="-726.7" font-family="Courier,monospace" font-size="11.00">Route</text>
</g>
<!-- \\LiftKit\\Router\\Route\\Http\\Http&#45;&gt;\\LiftKit\\Router\\Route\\Route -->
<g id="edge27" class="edge"><title>\\LiftKit\\Router\\Route\\Http\\Http&#45;&gt;\\LiftKit\\Router\\Route\\Route</title>
<path fill="none" stroke="black" d="M204.352,-730C174.299,-730 133.482,-730 104.356,-730"/>
<polygon fill="none" stroke="black" points="104.197,-726.5 94.1966,-730 104.197,-733.5 104.197,-726.5"/>
</g>
<!-- \\LiftKit\\Router\\Http -->
<g id="node37" class="node"><title>\\LiftKit\\Router\\Http</title>
<polygon fill="none" stroke="black" points="804.505,-555 750.505,-555 750.505,-519 804.505,-519 804.505,-555"/>
<text text-anchor="middle" x="777.505" y="-533.7" font-family="Courier,monospace" font-size="11.00">Http</text>
</g>
<!-- \\LiftKit\\Router\\Router -->
<g id="node38" class="node"><title>\\LiftKit\\Router\\Router</title>
<polygon fill="none" stroke="black" points="540.078,-555 484.862,-555 484.862,-519 540.078,-519 540.078,-555"/>
<text text-anchor="middle" x="512.47" y="-533.7" font-family="Courier,monospace" font-size="11.00">Router</text>
</g>
<!-- \\LiftKit\\Router\\Http&#45;&gt;\\LiftKit\\Router\\Router -->
<g id="edge23" class="edge"><title>\\LiftKit\\Router\\Http&#45;&gt;\\LiftKit\\Router\\Router</title>
<path fill="none" stroke="black" d="M750.322,-537C703.299,-537 604.427,-537 550.489,-537"/>
<polygon fill="none" stroke="black" points="550.33,-533.5 540.33,-537 550.33,-540.5 550.33,-533.5"/>
</g>
</g>
</svg>
