<?xml version="1.0" encoding="UTF-8" standalone="no"?>
<!DOCTYPE svg PUBLIC "-//W3C//DTD SVG 1.1//EN"
 "http://www.w3.org/Graphics/SVG/1.1/DTD/svg11.dtd">
<!-- Generated by graphviz version 2.38.0 (20140413.2041)
 -->
<!-- Title: G Pages: 1 -->
<svg width="906pt" height="2212pt"
 viewBox="0.00 0.00 905.61 2212.00" xmlns="http://www.w3.org/2000/svg" xmlns:xlink="http://www.w3.org/1999/xlink">
<g id="graph0" class="graph" transform="scale(1 1) rotate(0) translate(4 2208)">
<title>G</title>
<polygon fill="white" stroke="none" points="-4,4 -4,-2208 901.614,-2208 901.614,4 -4,4"/>
<g id="clust1" class="cluster"><title>cluster_Global</title>
<path fill="none" stroke="gray" d="M20,-98C20,-98 877.614,-98 877.614,-98 883.614,-98 889.614,-104 889.614,-110 889.614,-110 889.614,-2184 889.614,-2184 889.614,-2190 883.614,-2196 877.614,-2196 877.614,-2196 20,-2196 20,-2196 14,-2196 8,-2190 8,-2184 8,-2184 8,-110 8,-110 8,-104 14,-98 20,-98"/>
<text text-anchor="middle" x="448.807" y="-2183.2" font-family="Times,serif" font-size="11.00" fill="gray">Global</text>
</g>
<g id="clust2" class="cluster"><title>cluster_\LiftKit</title>
<path fill="none" stroke="gray" d="M28,-106C28,-106 869.614,-106 869.614,-106 875.614,-106 881.614,-112 881.614,-118 881.614,-118 881.614,-2157 881.614,-2157 881.614,-2163 875.614,-2169 869.614,-2169 869.614,-2169 28,-2169 28,-2169 22,-2169 16,-2163 16,-2157 16,-2157 16,-118 16,-118 16,-112 22,-106 28,-106"/>
<text text-anchor="middle" x="448.807" y="-2156.2" font-family="Times,serif" font-size="11.00" fill="gray">LiftKit</text>
</g>
<g id="clust3" class="cluster"><title>cluster_\LiftKit\Response</title>
<path fill="none" stroke="gray" d="M475.465,-1884C475.465,-1884 842.313,-1884 842.313,-1884 848.313,-1884 854.313,-1890 854.313,-1896 854.313,-1896 854.313,-2130 854.313,-2130 854.313,-2136 848.313,-2142 842.313,-2142 842.313,-2142 475.465,-2142 475.465,-2142 469.465,-2142 463.465,-2136 463.465,-2130 463.465,-2130 463.465,-1896 463.465,-1896 463.465,-1890 469.465,-1884 475.465,-1884"/>
<text text-anchor="middle" x="658.889" y="-2129.2" font-family="Times,serif" font-size="11.00" fill="gray">Response</text>
</g>
<g id="clust4" class="cluster"><title>cluster_\LiftKit\Response\Exception</title>
<path fill="none" stroke="gray" d="M720.696,-1892C720.696,-1892 834.313,-1892 834.313,-1892 840.313,-1892 846.313,-1898 846.313,-1904 846.313,-1904 846.313,-1951 846.313,-1951 846.313,-1957 840.313,-1963 834.313,-1963 834.313,-1963 720.696,-1963 720.696,-1963 714.696,-1963 708.696,-1957 708.696,-1951 708.696,-1951 708.696,-1904 708.696,-1904 708.696,-1898 714.696,-1892 720.696,-1892"/>
<text text-anchor="middle" x="777.505" y="-1950.2" font-family="Times,serif" font-size="11.00" fill="gray">Exception</text>
</g>
<g id="clust5" class="cluster"><title>cluster_\LiftKit\Loader</title>
<path fill="none" stroke="gray" d="M467.465,-1583C467.465,-1583 847.013,-1583 847.013,-1583 853.013,-1583 859.013,-1589 859.013,-1595 859.013,-1595 859.013,-1864 859.013,-1864 859.013,-1870 853.013,-1876 847.013,-1876 847.013,-1876 467.465,-1876 467.465,-1876 461.465,-1876 455.465,-1870 455.465,-1864 455.465,-1864 455.465,-1595 455.465,-1595 455.465,-1589 461.465,-1583 467.465,-1583"/>
<text text-anchor="middle" x="657.239" y="-1863.2" font-family="Times,serif" font-size="11.00" fill="gray">Loader</text>
</g>
<g id="clust6" class="cluster"><title>cluster_\LiftKit\Loader\File</title>
<path fill="none" stroke="gray" d="M475.465,-1591C475.465,-1591 839.013,-1591 839.013,-1591 845.013,-1591 851.013,-1597 851.013,-1603 851.013,-1603 851.013,-1837 851.013,-1837 851.013,-1843 845.013,-1849 839.013,-1849 839.013,-1849 475.465,-1849 475.465,-1849 469.465,-1849 463.465,-1843 463.465,-1837 463.465,-1837 463.465,-1603 463.465,-1603 463.465,-1597 469.465,-1591 475.465,-1591"/>
<text text-anchor="middle" x="657.239" y="-1836.2" font-family="Times,serif" font-size="11.00" fill="gray">File</text>
</g>
<g id="clust7" class="cluster"><title>cluster_\LiftKit\Loader\File\Exception</title>
<path fill="none" stroke="gray" d="M723.996,-1599C723.996,-1599 831.013,-1599 831.013,-1599 837.013,-1599 843.013,-1605 843.013,-1611 843.013,-1611 843.013,-1658 843.013,-1658 843.013,-1664 837.013,-1670 831.013,-1670 831.013,-1670 723.996,-1670 723.996,-1670 717.996,-1670 711.996,-1664 711.996,-1658 711.996,-1658 711.996,-1611 711.996,-1611 711.996,-1605 717.996,-1599 723.996,-1599"/>
<text text-anchor="middle" x="777.505" y="-1657.2" font-family="Times,serif" font-size="11.00" fill="gray">Exception</text>
</g>
<g id="clust8" class="cluster"><title>cluster_\LiftKit\Router</title>
<path fill="none" stroke="gray" d="M36,-1045C36,-1045 861.614,-1045 861.614,-1045 867.614,-1045 873.614,-1051 873.614,-1057 873.614,-1057 873.614,-1563 873.614,-1563 873.614,-1569 867.614,-1575 861.614,-1575 861.614,-1575 36,-1575 36,-1575 30,-1575 24,-1569 24,-1563 24,-1563 24,-1057 24,-1057 24,-1051 30,-1045 36,-1045"/>
<text text-anchor="middle" x="448.807" y="-1562.2" font-family="Times,serif" font-size="11.00" fill="gray">Router</text>
</g>
<g id="clust9" class="cluster"><title>cluster_\LiftKit\Router\Route</title>
<path fill="none" stroke="gray" d="M44,-1176C44,-1176 853.614,-1176 853.614,-1176 859.614,-1176 865.614,-1182 865.614,-1188 865.614,-1188 865.614,-1536 865.614,-1536 865.614,-1542 859.614,-1548 853.614,-1548 853.614,-1548 44,-1548 44,-1548 38,-1548 32,-1542 32,-1536 32,-1536 32,-1188 32,-1188 32,-1182 38,-1176 44,-1176"/>
<text text-anchor="middle" x="448.807" y="-1535.2" font-family="Times,serif" font-size="11.00" fill="gray">Route</text>
</g>
<g id="clust10" class="cluster"><title>cluster_\LiftKit\Router\Route\Http</title>
<path fill="none" stroke="gray" d="M208.368,-1263C208.368,-1263 845.614,-1263 845.614,-1263 851.614,-1263 857.614,-1269 857.614,-1275 857.614,-1275 857.614,-1509 857.614,-1509 857.614,-1515 851.614,-1521 845.614,-1521 845.614,-1521 208.368,-1521 208.368,-1521 202.368,-1521 196.368,-1515 196.368,-1509 196.368,-1509 196.368,-1275 196.368,-1275 196.368,-1269 202.368,-1263 208.368,-1263"/>
<text text-anchor="middle" x="526.991" y="-1508.2" font-family="Times,serif" font-size="11.00" fill="gray">Http</text>
</g>
<g id="clust11" class="cluster"><title>cluster_\LiftKit\Router\Route\Http\Rest</title>
<path fill="none" stroke="gray" d="M475.465,-1369C475.465,-1369 837.614,-1369 837.614,-1369 843.614,-1369 849.614,-1375 849.614,-1381 849.614,-1381 849.614,-1482 849.614,-1482 849.614,-1488 843.614,-1494 837.614,-1494 837.614,-1494 475.465,-1494 475.465,-1494 469.465,-1494 463.465,-1488 463.465,-1482 463.465,-1482 463.465,-1381 463.465,-1381 463.465,-1375 469.465,-1369 475.465,-1369"/>
<text text-anchor="middle" x="656.539" y="-1481.2" font-family="Times,serif" font-size="11.00" fill="gray">Rest</text>
</g>
<g id="clust12" class="cluster"><title>cluster_\LiftKit\Router\Route\Exception</title>
<path fill="none" stroke="gray" d="M754.505,-1184C754.505,-1184 800.505,-1184 800.505,-1184 806.505,-1184 812.505,-1190 812.505,-1196 812.505,-1196 812.505,-1243 812.505,-1243 812.505,-1249 806.505,-1255 800.505,-1255 800.505,-1255 754.505,-1255 754.505,-1255 748.505,-1255 742.505,-1249 742.505,-1243 742.505,-1243 742.505,-1196 742.505,-1196 742.505,-1190 748.505,-1184 754.505,-1184"/>
<text text-anchor="middle" x="777.505" y="-1242.2" font-family="Times,serif" font-size="11.00" fill="gray">Exception</text>
</g>
<g id="clust13" class="cluster"><title>cluster_\LiftKit\Router\Exception</title>
<path fill="none" stroke="gray" d="M723.996,-1053C723.996,-1053 831.013,-1053 831.013,-1053 837.013,-1053 843.013,-1059 843.013,-1065 843.013,-1065 843.013,-1112 843.013,-1112 843.013,-1118 837.013,-1124 831.013,-1124 831.013,-1124 723.996,-1124 723.996,-1124 717.996,-1124 711.996,-1118 711.996,-1112 711.996,-1112 711.996,-1065 711.996,-1065 711.996,-1059 717.996,-1053 723.996,-1053"/>
<text text-anchor="middle" x="777.505" y="-1111.2" font-family="Times,serif" font-size="11.00" fill="gray">Exception</text>
</g>
<g id="clust14" class="cluster"><title>cluster_\LiftKit\Module</title>
<path fill="none" stroke="gray" d="M699.494,-193C699.494,-193 855.515,-193 855.515,-193 861.515,-193 867.515,-199 867.515,-205 867.515,-205 867.515,-333 867.515,-333 867.515,-339 861.515,-345 855.515,-345 855.515,-345 699.494,-345 699.494,-345 693.494,-345 687.494,-339 687.494,-333 687.494,-333 687.494,-205 687.494,-205 687.494,-199 693.494,-193 699.494,-193"/>
<text text-anchor="middle" x="777.505" y="-332.2" font-family="Times,serif" font-size="11.00" fill="gray">Module</text>
</g>
<g id="clust15" class="cluster"><title>cluster_\LiftKit\Module\Exception</title>
<path fill="none" stroke="gray" d="M707.494,-247C707.494,-247 847.515,-247 847.515,-247 853.515,-247 859.515,-253 859.515,-259 859.515,-259 859.515,-306 859.515,-306 859.515,-312 853.515,-318 847.515,-318 847.515,-318 707.494,-318 707.494,-318 701.494,-318 695.494,-312 695.494,-306 695.494,-306 695.494,-259 695.494,-259 695.494,-253 701.494,-247 707.494,-247"/>
<text text-anchor="middle" x="777.505" y="-305.2" font-family="Times,serif" font-size="11.00" fill="gray">Exception</text>
</g>
<g id="clust16" class="cluster"><title>cluster_\LiftKit\Controller</title>
<path fill="none" stroke="gray" d="M465.563,-833C465.563,-833 839.013,-833 839.013,-833 845.013,-833 851.013,-839 851.013,-845 851.013,-845 851.013,-1025 851.013,-1025 851.013,-1031 845.013,-1037 839.013,-1037 839.013,-1037 465.563,-1037 465.563,-1037 459.563,-1037 453.563,-1031 453.563,-1025 453.563,-1025 453.563,-845 453.563,-845 453.563,-839 459.563,-833 465.563,-833"/>
<text text-anchor="middle" x="652.288" y="-1024.2" font-family="Times,serif" font-size="11.00" fill="gray">Controller</text>
</g>
<g id="clust17" class="cluster"><title>cluster_\LiftKit\Controller\Exception</title>
<path fill="none" stroke="gray" d="M723.996,-841C723.996,-841 831.013,-841 831.013,-841 837.013,-841 843.013,-847 843.013,-853 843.013,-853 843.013,-954 843.013,-954 843.013,-960 837.013,-966 831.013,-966 831.013,-966 723.996,-966 723.996,-966 717.996,-966 711.996,-960 711.996,-954 711.996,-954 711.996,-853 711.996,-853 711.996,-847 717.996,-841 723.996,-841"/>
<text text-anchor="middle" x="777.505" y="-953.2" font-family="Times,serif" font-size="11.00" fill="gray">Exception</text>
</g>
<g id="clust18" class="cluster"><title>cluster_\LiftKit\Request</title>
<path fill="none" stroke="gray" d="M475.465,-754C475.465,-754 800.505,-754 800.505,-754 806.505,-754 812.505,-760 812.505,-766 812.505,-766 812.505,-813 812.505,-813 812.505,-819 806.505,-825 800.505,-825 800.505,-825 475.465,-825 475.465,-825 469.465,-825 463.465,-819 463.465,-813 463.465,-813 463.465,-766 463.465,-766 463.465,-760 469.465,-754 475.465,-754"/>
<text text-anchor="middle" x="637.985" y="-812.2" font-family="Times,serif" font-size="11.00" fill="gray">Request</text>
</g>
<g id="clust19" class="cluster"><title>cluster_\LiftKit\Application</title>
<path fill="none" stroke="gray" d="M467.465,-353C467.465,-353 858.816,-353 858.816,-353 864.816,-353 870.816,-359 870.816,-365 870.816,-365 870.816,-734 870.816,-734 870.816,-740 864.816,-746 858.816,-746 858.816,-746 467.465,-746 467.465,-746 461.465,-746 455.465,-740 455.465,-734 455.465,-734 455.465,-365 455.465,-365 455.465,-359 461.465,-353 467.465,-353"/>
<text text-anchor="middle" x="663.14" y="-733.2" font-family="Times,serif" font-size="11.00" fill="gray">Application</text>
</g>
<g id="clust20" class="cluster"><title>cluster_\LiftKit\Application\Hook</title>
<path fill="none" stroke="gray" d="M475.465,-594C475.465,-594 801.308,-594 801.308,-594 807.308,-594 813.308,-600 813.308,-606 813.308,-606 813.308,-707 813.308,-707 813.308,-713 807.308,-719 801.308,-719 801.308,-719 475.465,-719 475.465,-719 469.465,-719 463.465,-713 463.465,-707 463.465,-707 463.465,-606 463.465,-606 463.465,-600 469.465,-594 475.465,-594"/>
<text text-anchor="middle" x="638.386" y="-706.2" font-family="Times,serif" font-size="11.00" fill="gray">Hook</text>
</g>
<g id="clust21" class="cluster"><title>cluster_\LiftKit\Application\Exception</title>
<path fill="none" stroke="gray" d="M704.193,-407C704.193,-407 850.816,-407 850.816,-407 856.816,-407 862.816,-413 862.816,-419 862.816,-419 862.816,-574 862.816,-574 862.816,-580 856.816,-586 850.816,-586 850.816,-586 704.193,-586 704.193,-586 698.193,-586 692.193,-580 692.193,-574 692.193,-574 692.193,-419 692.193,-419 692.193,-413 698.193,-407 704.193,-407"/>
<text text-anchor="middle" x="777.505" y="-573.2" font-family="Times,serif" font-size="11.00" fill="gray">Exception</text>
</g>
<g id="clust22" class="cluster"><title>cluster_\LiftKit\Config</title>
<path fill="none" stroke="gray" d="M753.701,-114C753.701,-114 801.308,-114 801.308,-114 807.308,-114 813.308,-120 813.308,-126 813.308,-126 813.308,-173 813.308,-173 813.308,-179 807.308,-185 801.308,-185 801.308,-185 753.701,-185 753.701,-185 747.701,-185 741.701,-179 741.701,-173 741.701,-173 741.701,-126 741.701,-126 741.701,-120 747.701,-114 753.701,-114"/>
<text text-anchor="middle" x="777.505" y="-172.2" font-family="Times,serif" font-size="11.00" fill="gray">Config</text>
</g>
<!-- \\LiftKit\\Response\\Exception\\ViewFileNotFound -->
<g id="node1" class="node"><title>\\LiftKit\\Response\\Exception\\ViewFileNotFound</title>
<polygon fill="none" stroke="black" points="838.122,-1936 716.887,-1936 716.887,-1900 838.122,-1900 838.122,-1936"/>
<text text-anchor="middle" x="777.505" y="-1914.7" font-family="Courier,monospace" font-size="11.00">ViewFileNotFound</text>
</g>
<!-- \\Exception -->
<g id="node39" class="node"><title>\\Exception</title>
<ellipse fill="none" stroke="black" cx="512.47" cy="-72" rx="48.3341" ry="18"/>
<text text-anchor="middle" x="512.47" y="-67.8" font-family="Times,serif" font-size="14.00" fill="gray">\Exception</text>
</g>
<!-- \\LiftKit\\Response\\Exception\\ViewFileNotFound&#45;&gt;\\Exception -->
<g id="edge1" class="edge"><title>\\LiftKit\\Response\\Exception\\ViewFileNotFound&#45;&gt;\\Exception</title>
<path fill="none" stroke="black" d="M737.502,-1899.85C718.947,-1889.03 698.462,-1873.39 687.494,-1853 620.945,-1729.27 646.745,-729.258 628.193,-590 602.927,-400.336 543.127,-177.403 521.473,-100.075"/>
<polygon fill="none" stroke="black" points="524.758,-98.8264 518.679,-90.1491 518.02,-100.723 524.758,-98.8264"/>
</g>
<!-- \\LiftKit\\Response\\Json -->
<g id="node2" class="node"><title>\\LiftKit\\Response\\Json</title>
<polygon fill="none" stroke="black" points="804.505,-2115 750.505,-2115 750.505,-2079 804.505,-2079 804.505,-2115"/>
<text text-anchor="middle" x="777.505" y="-2093.7" font-family="Courier,monospace" font-size="11.00">Json</text>
</g>
<!-- \\LiftKit\\Response\\Response -->
<g id="node3" class="node"><title>\\LiftKit\\Response\\Response</title>
<polygon fill="none" stroke="black" points="553.481,-2061 471.459,-2061 471.459,-2025 553.481,-2025 553.481,-2061"/>
<text text-anchor="start" x="479.465" y="-2045.2" font-family="Courier,monospace" font-size="11.00">«abstract»</text>
<text text-anchor="start" x="486.066" y="-2034.2" font-family="Courier,monospace" font-size="11.00">Response</text>
</g>
<!-- \\LiftKit\\Response\\Json&#45;&gt;\\LiftKit\\Response\\Response -->
<g id="edge7" class="edge"><title>\\LiftKit\\Response\\Json&#45;&gt;\\LiftKit\\Response\\Response</title>
<path fill="none" stroke="black" d="M750.322,-2091.62C706.895,-2082.71 619.247,-2064.72 563.61,-2053.29"/>
<polygon fill="none" stroke="black" points="564.111,-2049.82 553.612,-2051.24 562.703,-2056.68 564.111,-2049.82"/>
</g>
<!-- \\LiftKit\\Response\\String -->
<g id="node4" class="node"><title>\\LiftKit\\Response\\String</title>
<polygon fill="none" stroke="black" points="805.112,-2061 749.897,-2061 749.897,-2025 805.112,-2025 805.112,-2061"/>
<text text-anchor="middle" x="777.505" y="-2039.7" font-family="Courier,monospace" font-size="11.00">String</text>
</g>
<!-- \\LiftKit\\Response\\String&#45;&gt;\\LiftKit\\Response\\Response -->
<g id="edge17" class="edge"><title>\\LiftKit\\Response\\String&#45;&gt;\\LiftKit\\Response\\Response</title>
<path fill="none" stroke="black" d="M749.836,-2043C706.4,-2043 619.667,-2043 564.209,-2043"/>
<polygon fill="none" stroke="black" points="563.896,-2039.5 553.896,-2043 563.896,-2046.5 563.896,-2039.5"/>
</g>
<!-- \\LiftKit\\Response\\View -->
<g id="node5" class="node"><title>\\LiftKit\\Response\\View</title>
<polygon fill="none" stroke="black" points="804.505,-2007 750.505,-2007 750.505,-1971 804.505,-1971 804.505,-2007"/>
<text text-anchor="middle" x="777.505" y="-1985.7" font-family="Courier,monospace" font-size="11.00">View</text>
</g>
<!-- \\LiftKit\\Response\\View&#45;&gt;\\LiftKit\\Response\\Response -->
<g id="edge21" class="edge"><title>\\LiftKit\\Response\\View&#45;&gt;\\LiftKit\\Response\\Response</title>
<path fill="none" stroke="black" d="M750.322,-1994.38C706.895,-2003.29 619.247,-2021.28 563.61,-2032.71"/>
<polygon fill="none" stroke="black" points="562.703,-2029.32 553.612,-2034.76 564.111,-2036.18 562.703,-2029.32"/>
</g>
<!-- \\LiftKit\\Loader\\File\\Exception\\NonexistentFile -->
<g id="node6" class="node"><title>\\LiftKit\\Loader\\File\\Exception\\NonexistentFile</title>
<polygon fill="none" stroke="black" points="835.021,-1643 719.988,-1643 719.988,-1607 835.021,-1607 835.021,-1643"/>
<text text-anchor="middle" x="777.505" y="-1621.7" font-family="Courier,monospace" font-size="11.00">NonexistentFile</text>
</g>
<!-- \\LiftKit\\Loader\\File\\Exception\\NonexistentFile&#45;&gt;\\Exception -->
<g id="edge10" class="edge"><title>\\LiftKit\\Loader\\File\\Exception\\NonexistentFile&#45;&gt;\\Exception</title>
<path fill="none" stroke="black" d="M758.635,-1606.66C737.355,-1583.51 702.773,-1541.43 687.494,-1498 620.391,-1307.25 656.727,-790.184 628.193,-590 601.193,-400.576 542.473,-177.493 521.288,-100.101"/>
<polygon fill="none" stroke="black" points="524.583,-98.8796 518.556,-90.1661 517.833,-100.736 524.583,-98.8796"/>
</g>
<!-- \\LiftKit\\Loader\\File\\View -->
<g id="node7" class="node"><title>\\LiftKit\\Loader\\File\\View</title>
<polygon fill="none" stroke="black" points="804.505,-1822 750.505,-1822 750.505,-1786 804.505,-1786 804.505,-1822"/>
<text text-anchor="middle" x="777.505" y="-1800.7" font-family="Courier,monospace" font-size="11.00">View</text>
</g>
<!-- \\LiftKit\\Loader\\File\\Loader -->
<g id="node10" class="node"><title>\\LiftKit\\Loader\\File\\Loader</title>
<polygon fill="none" stroke="black" points="553.481,-1768 471.459,-1768 471.459,-1732 553.481,-1732 553.481,-1768"/>
<text text-anchor="start" x="479.465" y="-1752.2" font-family="Courier,monospace" font-size="11.00">«abstract»</text>
<text text-anchor="start" x="492.667" y="-1741.2" font-family="Courier,monospace" font-size="11.00">Loader</text>
</g>
<!-- \\LiftKit\\Loader\\File\\View&#45;&gt;\\LiftKit\\Loader\\File\\Loader -->
<g id="edge2" class="edge"><title>\\LiftKit\\Loader\\File\\View&#45;&gt;\\LiftKit\\Loader\\File\\Loader</title>
<path fill="none" stroke="black" d="M750.322,-1798.62C706.895,-1789.71 619.247,-1771.72 563.61,-1760.29"/>
<polygon fill="none" stroke="black" points="564.111,-1756.82 553.612,-1758.24 562.703,-1763.68 564.111,-1756.82"/>
</g>
<!-- \\LiftKit\\Loader\\File\\Script -->
<g id="node8" class="node"><title>\\LiftKit\\Loader\\File\\Script</title>
<polygon fill="none" stroke="black" points="805.112,-1768 749.897,-1768 749.897,-1732 805.112,-1732 805.112,-1768"/>
<text text-anchor="middle" x="777.505" y="-1746.7" font-family="Courier,monospace" font-size="11.00">Script</text>
</g>
<!-- \\LiftKit\\Loader\\File\\Script&#45;&gt;\\LiftKit\\Loader\\File\\Loader -->
<g id="edge16" class="edge"><title>\\LiftKit\\Loader\\File\\Script&#45;&gt;\\LiftKit\\Loader\\File\\Loader</title>
<path fill="none" stroke="black" d="M749.836,-1750C706.4,-1750 619.667,-1750 564.209,-1750"/>
<polygon fill="none" stroke="black" points="563.896,-1746.5 553.896,-1750 563.896,-1753.5 563.896,-1746.5"/>
</g>
<!-- \\LiftKit\\Loader\\File\\Config -->
<g id="node9" class="node"><title>\\LiftKit\\Loader\\File\\Config</title>
<polygon fill="none" stroke="black" points="805.112,-1714 749.897,-1714 749.897,-1678 805.112,-1678 805.112,-1714"/>
<text text-anchor="middle" x="777.505" y="-1692.7" font-family="Courier,monospace" font-size="11.00">Config</text>
</g>
<!-- \\LiftKit\\Loader\\File\\Config&#45;&gt;\\LiftKit\\Loader\\File\\Loader -->
<g id="edge19" class="edge"><title>\\LiftKit\\Loader\\File\\Config&#45;&gt;\\LiftKit\\Loader\\File\\Loader</title>
<path fill="none" stroke="black" d="M749.836,-1701.47C706.31,-1710.41 619.306,-1728.27 563.864,-1739.65"/>
<polygon fill="none" stroke="black" points="562.988,-1736.26 553.896,-1741.7 564.396,-1743.12 562.988,-1736.26"/>
</g>
<!-- \\LiftKit\\Router\\Route\\Http\\Rest\\Rest -->
<g id="node11" class="node"><title>\\LiftKit\\Router\\Route\\Http\\Rest\\Rest</title>
<polygon fill="none" stroke="black" points="553.481,-1415 471.459,-1415 471.459,-1379 553.481,-1379 553.481,-1415"/>
<text text-anchor="start" x="479.465" y="-1399.2" font-family="Courier,monospace" font-size="11.00">«abstract»</text>
<text text-anchor="start" x="499.268" y="-1388.2" font-family="Courier,monospace" font-size="11.00">Rest</text>
</g>
<!-- \\LiftKit\\Router\\Route\\Http\\Http -->
<g id="node15" class="node"><title>\\LiftKit\\Router\\Route\\Http\\Http</title>
<polygon fill="none" stroke="black" points="286.384,-1361 204.363,-1361 204.363,-1325 286.384,-1325 286.384,-1361"/>
<text text-anchor="start" x="212.368" y="-1345.2" font-family="Courier,monospace" font-size="11.00">«abstract»</text>
<text text-anchor="start" x="232.171" y="-1334.2" font-family="Courier,monospace" font-size="11.00">Http</text>
</g>
<!-- \\LiftKit\\Router\\Route\\Http\\Rest\\Rest&#45;&gt;\\LiftKit\\Router\\Route\\Http\\Http -->
<g id="edge3" class="edge"><title>\\LiftKit\\Router\\Route\\Http\\Rest\\Rest&#45;&gt;\\LiftKit\\Router\\Route\\Http\\Http</title>
<path fill="none" stroke="black" d="M471.346,-1389.51C449.305,-1385.35 421.495,-1380.01 396.747,-1375 363.282,-1368.23 325.715,-1360.24 296.502,-1353.93"/>
<polygon fill="none" stroke="black" points="297.051,-1350.47 286.537,-1351.78 295.571,-1357.31 297.051,-1350.47"/>
</g>
<!-- \\LiftKit\\Router\\Route\\Http\\Rest\\ControllerFactory -->
<g id="node12" class="node"><title>\\LiftKit\\Router\\Route\\Http\\Rest\\ControllerFactory</title>
<polygon fill="none" stroke="black" points="841.723,-1467 713.286,-1467 713.286,-1431 841.723,-1431 841.723,-1467"/>
<text text-anchor="middle" x="777.505" y="-1445.7" font-family="Courier,monospace" font-size="11.00">ControllerFactory</text>
</g>
<!-- \\LiftKit\\Router\\Route\\Http\\Rest\\ControllerFactory&#45;&gt;\\LiftKit\\Router\\Route\\Http\\Rest\\Rest -->
<g id="edge15" class="edge"><title>\\LiftKit\\Router\\Route\\Http\\Rest\\ControllerFactory&#45;&gt;\\LiftKit\\Router\\Route\\Http\\Rest\\Rest</title>
<path fill="none" stroke="black" d="M713.167,-1436.48C667.288,-1427.41 606.109,-1415.31 563.609,-1406.91"/>
<polygon fill="none" stroke="black" points="564.254,-1403.47 553.765,-1404.97 562.896,-1410.34 564.254,-1403.47"/>
</g>
<!-- \\LiftKit\\Router\\Route\\Http\\Rest\\Controller -->
<g id="node13" class="node"><title>\\LiftKit\\Router\\Route\\Http\\Rest\\Controller</title>
<polygon fill="none" stroke="black" points="818.515,-1413 736.494,-1413 736.494,-1377 818.515,-1377 818.515,-1413"/>
<text text-anchor="middle" x="777.505" y="-1391.7" font-family="Courier,monospace" font-size="11.00">Controller</text>
</g>
<!-- \\LiftKit\\Router\\Route\\Http\\Rest\\Controller&#45;&gt;\\LiftKit\\Router\\Route\\Http\\Rest\\Rest -->
<g id="edge22" class="edge"><title>\\LiftKit\\Router\\Route\\Http\\Rest\\Controller&#45;&gt;\\LiftKit\\Router\\Route\\Http\\Rest\\Rest</title>
<path fill="none" stroke="black" d="M736.269,-1395.31C690.05,-1395.66 614.153,-1396.23 563.994,-1396.62"/>
<polygon fill="none" stroke="black" points="563.674,-1393.12 553.701,-1396.69 563.728,-1400.12 563.674,-1393.12"/>
</g>
<!-- \\LiftKit\\Router\\Route\\Http\\Controller -->
<g id="node14" class="node"><title>\\LiftKit\\Router\\Route\\Http\\Controller</title>
<polygon fill="none" stroke="black" points="553.481,-1361 471.459,-1361 471.459,-1325 553.481,-1325 553.481,-1361"/>
<text text-anchor="middle" x="512.47" y="-1339.7" font-family="Courier,monospace" font-size="11.00">Controller</text>
</g>
<!-- \\LiftKit\\Router\\Route\\Http\\Controller&#45;&gt;\\LiftKit\\Router\\Route\\Http\\Http -->
<g id="edge9" class="edge"><title>\\LiftKit\\Router\\Route\\Http\\Controller&#45;&gt;\\LiftKit\\Router\\Route\\Http\\Http</title>
<path fill="none" stroke="black" d="M471.208,-1343C424.457,-1343 347.3,-1343 296.652,-1343"/>
<polygon fill="none" stroke="black" points="296.58,-1339.5 286.58,-1343 296.58,-1346.5 296.58,-1339.5"/>
</g>
<!-- \\LiftKit\\Router\\Route\\Route -->
<g id="node18" class="node"><title>\\LiftKit\\Router\\Route\\Route</title>
<polygon fill="none" stroke="black" points="94,-1361 40,-1361 40,-1325 94,-1325 94,-1361"/>
<text text-anchor="middle" x="67" y="-1339.7" font-family="Courier,monospace" font-size="11.00">Route</text>
</g>
<!-- \\LiftKit\\Router\\Route\\Http\\Http&#45;&gt;\\LiftKit\\Router\\Route\\Route -->
<g id="edge13" class="edge"><title>\\LiftKit\\Router\\Route\\Http\\Http&#45;&gt;\\LiftKit\\Router\\Route\\Route</title>
<path fill="none" stroke="black" d="M204.352,-1343C174.299,-1343 133.482,-1343 104.356,-1343"/>
<polygon fill="none" stroke="black" points="104.197,-1339.5 94.1966,-1343 104.197,-1346.5 104.197,-1339.5"/>
</g>
<!-- \\LiftKit\\Router\\Route\\Http\\ControllerFactory -->
<g id="node16" class="node"><title>\\LiftKit\\Router\\Route\\Http\\ControllerFactory</title>
<polygon fill="none" stroke="black" points="576.689,-1307 448.252,-1307 448.252,-1271 576.689,-1271 576.689,-1307"/>
<text text-anchor="middle" x="512.47" y="-1285.7" font-family="Courier,monospace" font-size="11.00">ControllerFactory</text>
</g>
<!-- \\LiftKit\\Router\\Route\\Http\\ControllerFactory&#45;&gt;\\LiftKit\\Router\\Route\\Http\\Http -->
<g id="edge23" class="edge"><title>\\LiftKit\\Router\\Route\\Http\\ControllerFactory&#45;&gt;\\LiftKit\\Router\\Route\\Http\\Http</title>
<path fill="none" stroke="black" d="M448.31,-1301.87C401.806,-1311.34 339.434,-1324.04 296.373,-1332.82"/>
<polygon fill="none" stroke="black" points="295.507,-1329.42 286.407,-1334.85 296.904,-1336.28 295.507,-1329.42"/>
</g>
<!-- \\LiftKit\\Router\\Route\\Exception\\Route -->
<g id="node17" class="node"><title>\\LiftKit\\Router\\Route\\Exception\\Route</title>
<polygon fill="none" stroke="black" points="804.505,-1228 750.505,-1228 750.505,-1192 804.505,-1192 804.505,-1228"/>
<text text-anchor="middle" x="777.505" y="-1206.7" font-family="Courier,monospace" font-size="11.00">Route</text>
</g>
<!-- \\LiftKit\\Router\\Route\\Exception\\Route&#45;&gt;\\Exception -->
<g id="edge18" class="edge"><title>\\LiftKit\\Router\\Route\\Exception\\Route&#45;&gt;\\Exception</title>
<path fill="none" stroke="black" d="M750.167,-1211.05C729.887,-1210.32 702.812,-1205.69 687.494,-1188 600.077,-1087.05 649.258,-721.869 628.193,-590 598.012,-401.056 541.273,-177.675 520.949,-100.152"/>
<polygon fill="none" stroke="black" points="524.26,-98.9799 518.33,-90.2003 517.491,-100.762 524.26,-98.9799"/>
</g>
<!-- \\LiftKit\\Router\\Exception\\NoMatchingRoute -->
<g id="node19" class="node"><title>\\LiftKit\\Router\\Exception\\NoMatchingRoute</title>
<polygon fill="none" stroke="black" points="835.021,-1097 719.988,-1097 719.988,-1061 835.021,-1061 835.021,-1097"/>
<text text-anchor="middle" x="777.505" y="-1075.7" font-family="Courier,monospace" font-size="11.00">NoMatchingRoute</text>
</g>
<!-- \\LiftKit\\Router\\Exception\\NoMatchingRoute&#45;&gt;\\Exception -->
<g id="edge28" class="edge"><title>\\LiftKit\\Router\\Exception\\NoMatchingRoute&#45;&gt;\\Exception</title>
<path fill="none" stroke="black" d="M719.659,-1065C707.357,-1059.44 695.618,-1051.71 687.494,-1041 626.397,-960.468 645.728,-689.552 628.193,-590 595.003,-401.562 540.138,-177.865 520.628,-100.206"/>
<polygon fill="none" stroke="black" points="523.953,-99.0777 518.116,-90.2362 517.166,-100.788 523.953,-99.0777"/>
</g>
<!-- \\LiftKit\\Router\\Router -->
<g id="node20" class="node"><title>\\LiftKit\\Router\\Router</title>
<polygon fill="none" stroke="black" points="540.078,-1168 484.862,-1168 484.862,-1132 540.078,-1132 540.078,-1168"/>
<text text-anchor="middle" x="512.47" y="-1146.7" font-family="Courier,monospace" font-size="11.00">Router</text>
</g>
<!-- \\LiftKit\\Router\\Http -->
<g id="node21" class="node"><title>\\LiftKit\\Router\\Http</title>
<polygon fill="none" stroke="black" points="804.505,-1168 750.505,-1168 750.505,-1132 804.505,-1132 804.505,-1168"/>
<text text-anchor="middle" x="777.505" y="-1146.7" font-family="Courier,monospace" font-size="11.00">Http</text>
</g>
<!-- \\LiftKit\\Router\\Http&#45;&gt;\\LiftKit\\Router\\Router -->
<g id="edge14" class="edge"><title>\\LiftKit\\Router\\Http&#45;&gt;\\LiftKit\\Router\\Router</title>
<path fill="none" stroke="black" d="M750.322,-1150C703.299,-1150 604.427,-1150 550.489,-1150"/>
<polygon fill="none" stroke="black" points="550.33,-1146.5 540.33,-1150 550.33,-1153.5 550.33,-1146.5"/>
</g>
<!-- \\LiftKit\\Module\\Exception\\NonexistentSubModule -->
<g id="node22" class="node"><title>\\LiftKit\\Module\\Exception\\NonexistentSubModule</title>
<polygon fill="none" stroke="black" points="851.526,-291 703.483,-291 703.483,-255 851.526,-255 851.526,-291"/>
<text text-anchor="middle" x="777.505" y="-269.7" font-family="Courier,monospace" font-size="11.00">NonexistentSubModule</text>
</g>
<!-- \\LiftKit\\Module\\Exception\\NonexistentSubModule&#45;&gt;\\Exception -->
<g id="edge11" class="edge"><title>\\LiftKit\\Module\\Exception\\NonexistentSubModule&#45;&gt;\\Exception</title>
<path fill="none" stroke="black" d="M703.292,-258.501C697.797,-256.337 692.464,-253.852 687.494,-251 618.816,-211.596 559.537,-137.277 531.216,-97.9397"/>
<polygon fill="none" stroke="black" points="533.972,-95.7754 525.331,-89.6451 528.263,-99.8261 533.972,-95.7754"/>
</g>
<!-- \\LiftKit\\Module\\Module -->
<g id="node23" class="node"><title>\\LiftKit\\Module\\Module</title>
<polygon fill="none" stroke="black" points="818.515,-237 736.494,-237 736.494,-201 818.515,-201 818.515,-237"/>
<text text-anchor="start" x="744.499" y="-221.2" font-family="Courier,monospace" font-size="11.00">«abstract»</text>
<text text-anchor="start" x="757.701" y="-210.2" font-family="Courier,monospace" font-size="11.00">Module</text>
</g>
<!-- \\LiftKit\\Controller\\Exception\\InvalidResponse -->
<g id="node24" class="node"><title>\\LiftKit\\Controller\\Exception\\InvalidResponse</title>
<polygon fill="none" stroke="black" points="835.021,-939 719.988,-939 719.988,-903 835.021,-903 835.021,-939"/>
<text text-anchor="middle" x="777.505" y="-917.7" font-family="Courier,monospace" font-size="11.00">InvalidResponse</text>
</g>
<!-- \\LiftKit\\Controller\\Exception\\InvalidResponse&#45;&gt;\\Exception -->
<g id="edge4" class="edge"><title>\\LiftKit\\Controller\\Exception\\InvalidResponse&#45;&gt;\\Exception</title>
<path fill="none" stroke="black" d="M719.953,-913.706C707.793,-909.664 696.044,-903.468 687.494,-894 595.237,-791.832 656.257,-724.767 628.193,-590 589.186,-402.679 537.945,-178.287 520.008,-100.325"/>
<polygon fill="none" stroke="black" points="523.358,-99.275 517.703,-90.3155 516.536,-100.846 523.358,-99.275"/>
</g>
<!-- \\LiftKit\\Controller\\Exception\\InvalidMethod -->
<g id="node25" class="node"><title>\\LiftKit\\Controller\\Exception\\InvalidMethod</title>
<polygon fill="none" stroke="black" points="828.319,-885 726.69,-885 726.69,-849 828.319,-849 828.319,-885"/>
<text text-anchor="middle" x="777.505" y="-863.7" font-family="Courier,monospace" font-size="11.00">InvalidMethod</text>
</g>
<!-- \\LiftKit\\Controller\\Exception\\InvalidMethod&#45;&gt;\\Exception -->
<g id="edge20" class="edge"><title>\\LiftKit\\Controller\\Exception\\InvalidMethod&#45;&gt;\\Exception</title>
<path fill="none" stroke="black" d="M726.395,-854.978C712.009,-849.278 697.52,-840.986 687.494,-829 681.38,-821.691 550.288,-236.661 519.777,-100.221"/>
<polygon fill="none" stroke="black" points="523.121,-99.1389 517.523,-90.1435 516.29,-100.666 523.121,-99.1389"/>
</g>
<!-- \\LiftKit\\Controller\\Rest -->
<g id="node26" class="node"><title>\\LiftKit\\Controller\\Rest</title>
<polygon fill="none" stroke="black" points="818.515,-1010 736.494,-1010 736.494,-974 818.515,-974 818.515,-1010"/>
<text text-anchor="start" x="744.499" y="-994.2" font-family="Courier,monospace" font-size="11.00">«abstract»</text>
<text text-anchor="start" x="764.302" y="-983.2" font-family="Courier,monospace" font-size="11.00">Rest</text>
</g>
<!-- \\LiftKit\\Controller\\Controller -->
<g id="node27" class="node"><title>\\LiftKit\\Controller\\Controller</title>
<polygon fill="none" stroke="black" points="553.481,-956 471.459,-956 471.459,-920 553.481,-920 553.481,-956"/>
<text text-anchor="start" x="479.465" y="-940.2" font-family="Courier,monospace" font-size="11.00">«abstract»</text>
<text text-anchor="start" x="479.465" y="-929.2" font-family="Courier,monospace" font-size="11.00">Controller</text>
</g>
<!-- \\LiftKit\\Controller\\Rest&#45;&gt;\\LiftKit\\Controller\\Controller -->
<g id="edge26" class="edge"><title>\\LiftKit\\Controller\\Rest&#45;&gt;\\LiftKit\\Controller\\Controller</title>
<path fill="none" stroke="black" d="M736.269,-983.74C689.953,-974.231 613.835,-958.605 563.679,-948.308"/>
<polygon fill="none" stroke="black" points="564.201,-944.842 553.701,-946.259 562.793,-951.699 564.201,-944.842"/>
</g>
<!-- \\LiftKit\\Controller\\RestInterface -->
<g id="node28" class="node"><title>\\LiftKit\\Controller\\RestInterface</title>
<polygon fill="none" stroke="black" points="563.284,-1010 461.656,-1010 461.656,-974 563.284,-974 563.284,-1010"/>
<text text-anchor="middle" x="512.47" y="-988.7" font-family="Courier,monospace" font-size="11.00">RestInterface</text>
</g>
<!-- \\LiftKit\\Controller\\Rest&#45;&gt;\\LiftKit\\Controller\\RestInterface -->
<g id="edge27" class="edge"><title>\\LiftKit\\Controller\\Rest&#45;&gt;\\LiftKit\\Controller\\RestInterface</title>
<path fill="none" stroke="black" stroke-dasharray="1,5" d="M736.269,-992C692.916,-992 623.449,-992 573.606,-992"/>
<polygon fill="none" stroke="black" points="573.599,-988.5 563.599,-992 573.599,-995.5 573.599,-988.5"/>
</g>
<!-- \\LiftKit\\Request\\Request -->
<g id="node29" class="node"><title>\\LiftKit\\Request\\Request</title>
<polygon fill="none" stroke="black" points="553.481,-798 471.459,-798 471.459,-762 553.481,-762 553.481,-798"/>
<text text-anchor="start" x="479.465" y="-782.2" font-family="Courier,monospace" font-size="11.00">«abstract»</text>
<text text-anchor="start" x="489.366" y="-771.2" font-family="Courier,monospace" font-size="11.00">Request</text>
</g>
<!-- \\LiftKit\\Input\\Input -->
<g id="node40" class="node"><title>\\LiftKit\\Input\\Input</title>
<ellipse fill="none" stroke="black" cx="245.373" cy="-72" rx="79.2471" ry="18"/>
<text text-anchor="middle" x="245.373" y="-67.8" font-family="Times,serif" font-size="14.00" fill="gray">\LiftKit\Input\Input</text>
</g>
<!-- \\LiftKit\\Request\\Request&#45;&gt;\\LiftKit\\Input\\Input -->
<g id="edge5" class="edge"><title>\\LiftKit\\Request\\Request&#45;&gt;\\LiftKit\\Input\\Input</title>
<path fill="none" stroke="black" d="M471.279,-769.629C446.238,-761.127 415.352,-746.565 396.747,-723 317.53,-622.669 263.252,-212.528 249.691,-100.43"/>
<polygon fill="none" stroke="black" points="253.136,-99.7589 248.472,-90.2456 246.185,-100.591 253.136,-99.7589"/>
</g>
<!-- \\LiftKit\\Request\\Http -->
<g id="node30" class="node"><title>\\LiftKit\\Request\\Http</title>
<polygon fill="none" stroke="black" points="804.505,-798 750.505,-798 750.505,-762 804.505,-762 804.505,-798"/>
<text text-anchor="middle" x="777.505" y="-776.7" font-family="Courier,monospace" font-size="11.00">Http</text>
</g>
<!-- \\LiftKit\\Request\\Http&#45;&gt;\\LiftKit\\Request\\Request -->
<g id="edge24" class="edge"><title>\\LiftKit\\Request\\Http&#45;&gt;\\LiftKit\\Request\\Request</title>
<path fill="none" stroke="black" d="M750.322,-780C706.985,-780 619.611,-780 563.957,-780"/>
<polygon fill="none" stroke="black" points="563.612,-776.5 553.612,-780 563.612,-783.5 563.612,-776.5"/>
</g>
<!-- \\LiftKit\\Application\\Hook\\Event -->
<g id="node31" class="node"><title>\\LiftKit\\Application\\Hook\\Event</title>
<polygon fill="none" stroke="black" points="804.505,-692 750.505,-692 750.505,-656 804.505,-656 804.505,-692"/>
<text text-anchor="middle" x="777.505" y="-670.7" font-family="Courier,monospace" font-size="11.00">Event</text>
</g>
<!-- \\LiftKit\\Application\\Hook\\Hook -->
<g id="node32" class="node"><title>\\LiftKit\\Application\\Hook\\Hook</title>
<polygon fill="none" stroke="black" points="553.481,-665 471.459,-665 471.459,-629 553.481,-629 553.481,-665"/>
<text text-anchor="start" x="479.465" y="-649.2" font-family="Courier,monospace" font-size="11.00">«abstract»</text>
<text text-anchor="start" x="499.268" y="-638.2" font-family="Courier,monospace" font-size="11.00">Hook</text>
</g>
<!-- \\LiftKit\\Application\\Hook\\Event&#45;&gt;\\LiftKit\\Application\\Hook\\Hook -->
<g id="edge6" class="edge"><title>\\LiftKit\\Application\\Hook\\Event&#45;&gt;\\LiftKit\\Application\\Hook\\Hook</title>
<path fill="none" stroke="black" d="M750.322,-671.312C706.895,-666.855 619.247,-657.858 563.61,-652.147"/>
<polygon fill="none" stroke="black" points="563.917,-648.66 553.612,-651.12 563.202,-655.623 563.917,-648.66"/>
</g>
<!-- \\LiftKit\\Application\\Hook\\Action -->
<g id="node33" class="node"><title>\\LiftKit\\Application\\Hook\\Action</title>
<polygon fill="none" stroke="black" points="805.112,-638 749.897,-638 749.897,-602 805.112,-602 805.112,-638"/>
<text text-anchor="middle" x="777.505" y="-616.7" font-family="Courier,monospace" font-size="11.00">Action</text>
</g>
<!-- \\LiftKit\\Application\\Hook\\Action&#45;&gt;\\LiftKit\\Application\\Hook\\Hook -->
<g id="edge25" class="edge"><title>\\LiftKit\\Application\\Hook\\Action&#45;&gt;\\LiftKit\\Application\\Hook\\Hook</title>
<path fill="none" stroke="black" d="M749.836,-622.737C706.31,-627.205 619.306,-636.136 563.864,-641.827"/>
<polygon fill="none" stroke="black" points="563.487,-638.347 553.896,-642.85 564.201,-645.311 563.487,-638.347"/>
</g>
<!-- \\LiftKit\\Application\\Exception\\ReregisterHook -->
<g id="node34" class="node"><title>\\LiftKit\\Application\\Exception\\ReregisterHook</title>
<polygon fill="none" stroke="black" points="831.92,-505 723.089,-505 723.089,-469 831.92,-469 831.92,-505"/>
<text text-anchor="middle" x="777.505" y="-483.7" font-family="Courier,monospace" font-size="11.00">ReregisterHook</text>
</g>
<!-- \\LiftKit\\Application\\Exception\\ReregisterHook&#45;&gt;\\Exception -->
<g id="edge8" class="edge"><title>\\LiftKit\\Application\\Exception\\ReregisterHook&#45;&gt;\\Exception</title>
<path fill="none" stroke="black" d="M723.28,-478.808C710.448,-474.808 697.554,-468.857 687.494,-460 573.91,-360.007 530.649,-171.391 517.917,-100.178"/>
<polygon fill="none" stroke="black" points="521.339,-99.4274 516.192,-90.1669 514.441,-100.616 521.339,-99.4274"/>
</g>
<!-- \\LiftKit\\Application\\Exception\\InvalidHookIdentifier -->
<g id="node35" class="node"><title>\\LiftKit\\Application\\Exception\\InvalidHookIdentifier</title>
<polygon fill="none" stroke="black" points="854.628,-451 700.382,-451 700.382,-415 854.628,-415 854.628,-451"/>
<text text-anchor="middle" x="777.505" y="-429.7" font-family="Courier,monospace" font-size="11.00">InvalidHookIdentifier</text>
</g>
<!-- \\LiftKit\\Application\\Exception\\InvalidHookIdentifier&#45;&gt;\\Exception -->
<g id="edge12" class="edge"><title>\\LiftKit\\Application\\Exception\\InvalidHookIdentifier&#45;&gt;\\Exception</title>
<path fill="none" stroke="black" d="M700.061,-418.986C695.601,-416.705 691.363,-414.062 687.494,-411 582.82,-328.171 535.043,-165.323 519.498,-100.044"/>
<polygon fill="none" stroke="black" points="522.857,-99.0353 517.197,-90.0791 516.037,-100.61 522.857,-99.0353"/>
</g>
<!-- \\LiftKit\\Application\\Exception\\UnregisteredHook -->
<g id="node36" class="node"><title>\\LiftKit\\Application\\Exception\\UnregisteredHook</title>
<polygon fill="none" stroke="black" points="838.122,-559 716.887,-559 716.887,-523 838.122,-523 838.122,-559"/>
<text text-anchor="middle" x="777.505" y="-537.7" font-family="Courier,monospace" font-size="11.00">UnregisteredHook</text>
</g>
<!-- \\LiftKit\\Application\\Exception\\UnregisteredHook&#45;&gt;\\Exception -->
<g id="edge30" class="edge"><title>\\LiftKit\\Application\\Exception\\UnregisteredHook&#45;&gt;\\Exception</title>
<path fill="none" stroke="black" d="M716.517,-530.921C705.925,-526.999 695.684,-521.555 687.494,-514 561.287,-397.573 525.259,-178.158 516.205,-100.29"/>
<polygon fill="none" stroke="black" points="519.675,-99.8237 515.1,-90.2675 512.717,-100.591 519.675,-99.8237"/>
</g>
<!-- \\LiftKit\\Application\\Application -->
<g id="node37" class="node"><title>\\LiftKit\\Application\\Application</title>
<polygon fill="none" stroke="black" points="821.617,-397 733.392,-397 733.392,-361 821.617,-361 821.617,-397"/>
<text text-anchor="middle" x="777.505" y="-375.7" font-family="Courier,monospace" font-size="11.00">Application</text>
</g>
<!-- \\LiftKit\\Config\\Config -->
<g id="node38" class="node"><title>\\LiftKit\\Config\\Config</title>
<polygon fill="none" stroke="black" points="805.112,-158 749.897,-158 749.897,-122 805.112,-122 805.112,-158"/>
<text text-anchor="middle" x="777.505" y="-136.7" font-family="Courier,monospace" font-size="11.00">Config</text>
</g>
<!-- \\LiftKit\\Collection\\Collection -->
<g id="node41" class="node"><title>\\LiftKit\\Collection\\Collection</title>
<ellipse fill="none" stroke="black" cx="512.47" cy="-18" rx="115.947" ry="18"/>
<text text-anchor="middle" x="512.47" y="-13.8" font-family="Times,serif" font-size="14.00" fill="gray">\LiftKit\Collection\Collection</text>
</g>
<!-- \\LiftKit\\Config\\Config&#45;&gt;\\LiftKit\\Collection\\Collection -->
<g id="edge29" class="edge"><title>\\LiftKit\\Config\\Config&#45;&gt;\\LiftKit\\Collection\\Collection</title>
<path fill="none" stroke="black" d="M753.745,-121.9C725.758,-100.507 676.064,-65.263 628.193,-45 618.626,-40.9503 608.341,-37.4449 597.999,-34.4273"/>
<polygon fill="none" stroke="black" points="598.66,-30.9785 588.088,-31.6816 596.791,-37.7244 598.66,-30.9785"/>
</g>
</g>
</svg>
