<?xml version="1.0" encoding="UTF-8" standalone="no"?>
<!DOCTYPE svg PUBLIC "-//W3C//DTD SVG 1.1//EN"
 "http://www.w3.org/Graphics/SVG/1.1/DTD/svg11.dtd">
<!-- Generated by graphviz version 2.38.0 (20140413.2041)
 -->
<!-- Title: G Pages: 1 -->
<svg width="906pt" height="2212pt"
 viewBox="0.00 0.00 905.61 2212.00" xmlns="http://www.w3.org/2000/svg" xmlns:xlink="http://www.w3.org/1999/xlink">
<g id="graph0" class="graph" transform="scale(1 1) rotate(0) translate(4 2208)">
<title>G</title>
<polygon fill="white" stroke="none" points="-4,4 -4,-2208 901.614,-2208 901.614,4 -4,4"/>
<g id="clust1" class="cluster"><title>cluster_Global</title>
<path fill="none" stroke="gray" d="M20,-98C20,-98 877.614,-98 877.614,-98 883.614,-98 889.614,-104 889.614,-110 889.614,-110 889.614,-2184 889.614,-2184 889.614,-2190 883.614,-2196 877.614,-2196 877.614,-2196 20,-2196 20,-2196 14,-2196 8,-2190 8,-2184 8,-2184 8,-110 8,-110 8,-104 14,-98 20,-98"/>
<text text-anchor="middle" x="448.807" y="-2183.2" font-family="Times,serif" font-size="11.00" fill="gray">Global</text>
</g>
<g id="clust2" class="cluster"><title>cluster_\LiftKit</title>
<path fill="none" stroke="gray" d="M28,-106C28,-106 869.614,-106 869.614,-106 875.614,-106 881.614,-112 881.614,-118 881.614,-118 881.614,-2157 881.614,-2157 881.614,-2163 875.614,-2169 869.614,-2169 869.614,-2169 28,-2169 28,-2169 22,-2169 16,-2163 16,-2157 16,-2157 16,-118 16,-118 16,-112 22,-106 28,-106"/>
<text text-anchor="middle" x="448.807" y="-2156.2" font-family="Times,serif" font-size="11.00" fill="gray">LiftKit</text>
</g>
<g id="clust3" class="cluster"><title>cluster_\LiftKit\Application</title>
<path fill="none" stroke="gray" d="M467.465,-1749C467.465,-1749 858.816,-1749 858.816,-1749 864.816,-1749 870.816,-1755 870.816,-1761 870.816,-1761 870.816,-2130 870.816,-2130 870.816,-2136 864.816,-2142 858.816,-2142 858.816,-2142 467.465,-2142 467.465,-2142 461.465,-2142 455.465,-2136 455.465,-2130 455.465,-2130 455.465,-1761 455.465,-1761 455.465,-1755 461.465,-1749 467.465,-1749"/>
<text text-anchor="middle" x="663.14" y="-2129.2" font-family="Times,serif" font-size="11.00" fill="gray">Application</text>
</g>
<g id="clust4" class="cluster"><title>cluster_\LiftKit\Application\Exception</title>
<path fill="none" stroke="gray" d="M704.193,-1803C704.193,-1803 850.816,-1803 850.816,-1803 856.816,-1803 862.816,-1809 862.816,-1815 862.816,-1815 862.816,-1970 862.816,-1970 862.816,-1976 856.816,-1982 850.816,-1982 850.816,-1982 704.193,-1982 704.193,-1982 698.193,-1982 692.193,-1976 692.193,-1970 692.193,-1970 692.193,-1815 692.193,-1815 692.193,-1809 698.193,-1803 704.193,-1803"/>
<text text-anchor="middle" x="777.505" y="-1969.2" font-family="Times,serif" font-size="11.00" fill="gray">Exception</text>
</g>
<g id="clust5" class="cluster"><title>cluster_\LiftKit\Application\Hook</title>
<path fill="none" stroke="gray" d="M475.465,-1990C475.465,-1990 801.308,-1990 801.308,-1990 807.308,-1990 813.308,-1996 813.308,-2002 813.308,-2002 813.308,-2103 813.308,-2103 813.308,-2109 807.308,-2115 801.308,-2115 801.308,-2115 475.465,-2115 475.465,-2115 469.465,-2115 463.465,-2109 463.465,-2103 463.465,-2103 463.465,-2002 463.465,-2002 463.465,-1996 469.465,-1990 475.465,-1990"/>
<text text-anchor="middle" x="638.386" y="-2102.2" font-family="Times,serif" font-size="11.00" fill="gray">Hook</text>
</g>
<g id="clust6" class="cluster"><title>cluster_\LiftKit\Config</title>
<path fill="none" stroke="gray" d="M753.701,-114C753.701,-114 801.308,-114 801.308,-114 807.308,-114 813.308,-120 813.308,-126 813.308,-126 813.308,-173 813.308,-173 813.308,-179 807.308,-185 801.308,-185 801.308,-185 753.701,-185 753.701,-185 747.701,-185 741.701,-179 741.701,-173 741.701,-173 741.701,-126 741.701,-126 741.701,-120 747.701,-114 753.701,-114"/>
<text text-anchor="middle" x="777.505" y="-172.2" font-family="Times,serif" font-size="11.00" fill="gray">Config</text>
</g>
<g id="clust7" class="cluster"><title>cluster_\LiftKit\Controller</title>
<path fill="none" stroke="gray" d="M465.563,-1458C465.563,-1458 839.013,-1458 839.013,-1458 845.013,-1458 851.013,-1464 851.013,-1470 851.013,-1470 851.013,-1650 851.013,-1650 851.013,-1656 845.013,-1662 839.013,-1662 839.013,-1662 465.563,-1662 465.563,-1662 459.563,-1662 453.563,-1656 453.563,-1650 453.563,-1650 453.563,-1470 453.563,-1470 453.563,-1464 459.563,-1458 465.563,-1458"/>
<text text-anchor="middle" x="652.288" y="-1649.2" font-family="Times,serif" font-size="11.00" fill="gray">Controller</text>
</g>
<g id="clust8" class="cluster"><title>cluster_\LiftKit\Controller\Exception</title>
<path fill="none" stroke="gray" d="M723.996,-1466C723.996,-1466 831.013,-1466 831.013,-1466 837.013,-1466 843.013,-1472 843.013,-1478 843.013,-1478 843.013,-1579 843.013,-1579 843.013,-1585 837.013,-1591 831.013,-1591 831.013,-1591 723.996,-1591 723.996,-1591 717.996,-1591 711.996,-1585 711.996,-1579 711.996,-1579 711.996,-1478 711.996,-1478 711.996,-1472 717.996,-1466 723.996,-1466"/>
<text text-anchor="middle" x="777.505" y="-1578.2" font-family="Times,serif" font-size="11.00" fill="gray">Exception</text>
</g>
<g id="clust9" class="cluster"><title>cluster_\LiftKit\Loader</title>
<path fill="none" stroke="gray" d="M467.465,-1157C467.465,-1157 847.013,-1157 847.013,-1157 853.013,-1157 859.013,-1163 859.013,-1169 859.013,-1169 859.013,-1438 859.013,-1438 859.013,-1444 853.013,-1450 847.013,-1450 847.013,-1450 467.465,-1450 467.465,-1450 461.465,-1450 455.465,-1444 455.465,-1438 455.465,-1438 455.465,-1169 455.465,-1169 455.465,-1163 461.465,-1157 467.465,-1157"/>
<text text-anchor="middle" x="657.239" y="-1437.2" font-family="Times,serif" font-size="11.00" fill="gray">Loader</text>
</g>
<g id="clust10" class="cluster"><title>cluster_\LiftKit\Loader\File</title>
<path fill="none" stroke="gray" d="M475.465,-1165C475.465,-1165 839.013,-1165 839.013,-1165 845.013,-1165 851.013,-1171 851.013,-1177 851.013,-1177 851.013,-1411 851.013,-1411 851.013,-1417 845.013,-1423 839.013,-1423 839.013,-1423 475.465,-1423 475.465,-1423 469.465,-1423 463.465,-1417 463.465,-1411 463.465,-1411 463.465,-1177 463.465,-1177 463.465,-1171 469.465,-1165 475.465,-1165"/>
<text text-anchor="middle" x="657.239" y="-1410.2" font-family="Times,serif" font-size="11.00" fill="gray">File</text>
</g>
<g id="clust11" class="cluster"><title>cluster_\LiftKit\Loader\File\Exception</title>
<path fill="none" stroke="gray" d="M723.996,-1173C723.996,-1173 831.013,-1173 831.013,-1173 837.013,-1173 843.013,-1179 843.013,-1185 843.013,-1185 843.013,-1232 843.013,-1232 843.013,-1238 837.013,-1244 831.013,-1244 831.013,-1244 723.996,-1244 723.996,-1244 717.996,-1244 711.996,-1238 711.996,-1232 711.996,-1232 711.996,-1185 711.996,-1185 711.996,-1179 717.996,-1173 723.996,-1173"/>
<text text-anchor="middle" x="777.505" y="-1231.2" font-family="Times,serif" font-size="11.00" fill="gray">Exception</text>
</g>
<g id="clust12" class="cluster"><title>cluster_\LiftKit\Module</title>
<path fill="none" stroke="gray" d="M699.494,-193C699.494,-193 855.515,-193 855.515,-193 861.515,-193 867.515,-199 867.515,-205 867.515,-205 867.515,-333 867.515,-333 867.515,-339 861.515,-345 855.515,-345 855.515,-345 699.494,-345 699.494,-345 693.494,-345 687.494,-339 687.494,-333 687.494,-333 687.494,-205 687.494,-205 687.494,-199 693.494,-193 699.494,-193"/>
<text text-anchor="middle" x="777.505" y="-332.2" font-family="Times,serif" font-size="11.00" fill="gray">Module</text>
</g>
<g id="clust13" class="cluster"><title>cluster_\LiftKit\Module\Exception</title>
<path fill="none" stroke="gray" d="M707.494,-247C707.494,-247 847.515,-247 847.515,-247 853.515,-247 859.515,-253 859.515,-259 859.515,-259 859.515,-306 859.515,-306 859.515,-312 853.515,-318 847.515,-318 847.515,-318 707.494,-318 707.494,-318 701.494,-318 695.494,-312 695.494,-306 695.494,-306 695.494,-259 695.494,-259 695.494,-253 701.494,-247 707.494,-247"/>
<text text-anchor="middle" x="777.505" y="-305.2" font-family="Times,serif" font-size="11.00" fill="gray">Exception</text>
</g>
<g id="clust14" class="cluster"><title>cluster_\LiftKit\Request</title>
<path fill="none" stroke="gray" d="M475.465,-1670C475.465,-1670 800.505,-1670 800.505,-1670 806.505,-1670 812.505,-1676 812.505,-1682 812.505,-1682 812.505,-1729 812.505,-1729 812.505,-1735 806.505,-1741 800.505,-1741 800.505,-1741 475.465,-1741 475.465,-1741 469.465,-1741 463.465,-1735 463.465,-1729 463.465,-1729 463.465,-1682 463.465,-1682 463.465,-1676 469.465,-1670 475.465,-1670"/>
<text text-anchor="middle" x="637.985" y="-1728.2" font-family="Times,serif" font-size="11.00" fill="gray">Request</text>
</g>
<g id="clust15" class="cluster"><title>cluster_\LiftKit\Response</title>
<path fill="none" stroke="gray" d="M475.465,-891C475.465,-891 842.313,-891 842.313,-891 848.313,-891 854.313,-897 854.313,-903 854.313,-903 854.313,-1137 854.313,-1137 854.313,-1143 848.313,-1149 842.313,-1149 842.313,-1149 475.465,-1149 475.465,-1149 469.465,-1149 463.465,-1143 463.465,-1137 463.465,-1137 463.465,-903 463.465,-903 463.465,-897 469.465,-891 475.465,-891"/>
<text text-anchor="middle" x="658.889" y="-1136.2" font-family="Times,serif" font-size="11.00" fill="gray">Response</text>
</g>
<g id="clust16" class="cluster"><title>cluster_\LiftKit\Response\Exception</title>
<path fill="none" stroke="gray" d="M720.696,-899C720.696,-899 834.313,-899 834.313,-899 840.313,-899 846.313,-905 846.313,-911 846.313,-911 846.313,-958 846.313,-958 846.313,-964 840.313,-970 834.313,-970 834.313,-970 720.696,-970 720.696,-970 714.696,-970 708.696,-964 708.696,-958 708.696,-958 708.696,-911 708.696,-911 708.696,-905 714.696,-899 720.696,-899"/>
<text text-anchor="middle" x="777.505" y="-957.2" font-family="Times,serif" font-size="11.00" fill="gray">Exception</text>
</g>
<g id="clust17" class="cluster"><title>cluster_\LiftKit\Router</title>
<path fill="none" stroke="gray" d="M36,-353C36,-353 861.614,-353 861.614,-353 867.614,-353 873.614,-359 873.614,-365 873.614,-365 873.614,-871 873.614,-871 873.614,-877 867.614,-883 861.614,-883 861.614,-883 36,-883 36,-883 30,-883 24,-877 24,-871 24,-871 24,-365 24,-365 24,-359 30,-353 36,-353"/>
<text text-anchor="middle" x="448.807" y="-870.2" font-family="Times,serif" font-size="11.00" fill="gray">Router</text>
</g>
<g id="clust18" class="cluster"><title>cluster_\LiftKit\Router\Exception</title>
<path fill="none" stroke="gray" d="M723.996,-361C723.996,-361 831.013,-361 831.013,-361 837.013,-361 843.013,-367 843.013,-373 843.013,-373 843.013,-420 843.013,-420 843.013,-426 837.013,-432 831.013,-432 831.013,-432 723.996,-432 723.996,-432 717.996,-432 711.996,-426 711.996,-420 711.996,-420 711.996,-373 711.996,-373 711.996,-367 717.996,-361 723.996,-361"/>
<text text-anchor="middle" x="777.505" y="-419.2" font-family="Times,serif" font-size="11.00" fill="gray">Exception</text>
</g>
<g id="clust19" class="cluster"><title>cluster_\LiftKit\Router\Route</title>
<path fill="none" stroke="gray" d="M44,-484C44,-484 853.614,-484 853.614,-484 859.614,-484 865.614,-490 865.614,-496 865.614,-496 865.614,-844 865.614,-844 865.614,-850 859.614,-856 853.614,-856 853.614,-856 44,-856 44,-856 38,-856 32,-850 32,-844 32,-844 32,-496 32,-496 32,-490 38,-484 44,-484"/>
<text text-anchor="middle" x="448.807" y="-843.2" font-family="Times,serif" font-size="11.00" fill="gray">Route</text>
</g>
<g id="clust20" class="cluster"><title>cluster_\LiftKit\Router\Route\Exception</title>
<path fill="none" stroke="gray" d="M754.505,-492C754.505,-492 800.505,-492 800.505,-492 806.505,-492 812.505,-498 812.505,-504 812.505,-504 812.505,-551 812.505,-551 812.505,-557 806.505,-563 800.505,-563 800.505,-563 754.505,-563 754.505,-563 748.505,-563 742.505,-557 742.505,-551 742.505,-551 742.505,-504 742.505,-504 742.505,-498 748.505,-492 754.505,-492"/>
<text text-anchor="middle" x="777.505" y="-550.2" font-family="Times,serif" font-size="11.00" fill="gray">Exception</text>
</g>
<g id="clust21" class="cluster"><title>cluster_\LiftKit\Router\Route\Http</title>
<path fill="none" stroke="gray" d="M208.368,-571C208.368,-571 845.614,-571 845.614,-571 851.614,-571 857.614,-577 857.614,-583 857.614,-583 857.614,-817 857.614,-817 857.614,-823 851.614,-829 845.614,-829 845.614,-829 208.368,-829 208.368,-829 202.368,-829 196.368,-823 196.368,-817 196.368,-817 196.368,-583 196.368,-583 196.368,-577 202.368,-571 208.368,-571"/>
<text text-anchor="middle" x="526.991" y="-816.2" font-family="Times,serif" font-size="11.00" fill="gray">Http</text>
</g>
<g id="clust22" class="cluster"><title>cluster_\LiftKit\Router\Route\Http\Rest</title>
<path fill="none" stroke="gray" d="M475.465,-677C475.465,-677 837.614,-677 837.614,-677 843.614,-677 849.614,-683 849.614,-689 849.614,-689 849.614,-790 849.614,-790 849.614,-796 843.614,-802 837.614,-802 837.614,-802 475.465,-802 475.465,-802 469.465,-802 463.465,-796 463.465,-790 463.465,-790 463.465,-689 463.465,-689 463.465,-683 469.465,-677 475.465,-677"/>
<text text-anchor="middle" x="656.539" y="-789.2" font-family="Times,serif" font-size="11.00" fill="gray">Rest</text>
</g>
<!-- \\LiftKit\\Application\\Exception\\InvalidHookIdentifier -->
<g id="node1" class="node"><title>\\LiftKit\\Application\\Exception\\InvalidHookIdentifier</title>
<polygon fill="none" stroke="black" points="854.628,-1901 700.382,-1901 700.382,-1865 854.628,-1865 854.628,-1901"/>
<text text-anchor="middle" x="777.505" y="-1879.7" font-family="Courier,monospace" font-size="11.00">InvalidHookIdentifier</text>
</g>
<!-- \\Exception -->
<g id="node39" class="node"><title>\\Exception</title>
<ellipse fill="none" stroke="black" cx="512.47" cy="-72" rx="48.3341" ry="18"/>
<text text-anchor="middle" x="512.47" y="-67.8" font-family="Times,serif" font-size="14.00" fill="gray">\Exception</text>
</g>
<!-- \\LiftKit\\Application\\Exception\\InvalidHookIdentifier&#45;&gt;\\Exception -->
<g id="edge1" class="edge"><title>\\LiftKit\\Application\\Exception\\InvalidHookIdentifier&#45;&gt;\\Exception</title>
<path fill="none" stroke="black" d="M700.154,-1867.64C695.363,-1864.44 691.048,-1860.6 687.494,-1856 585.042,-1723.39 664.107,-512.68 628.193,-349 607.015,-252.479 554.157,-146.781 528.252,-98.5975"/>
<polygon fill="none" stroke="black" points="531.294,-96.8662 523.447,-89.7474 525.142,-100.206 531.294,-96.8662"/>
</g>
<!-- \\LiftKit\\Application\\Exception\\ReregisterHook -->
<g id="node2" class="node"><title>\\LiftKit\\Application\\Exception\\ReregisterHook</title>
<polygon fill="none" stroke="black" points="831.92,-1847 723.089,-1847 723.089,-1811 831.92,-1811 831.92,-1847"/>
<text text-anchor="middle" x="777.505" y="-1825.7" font-family="Courier,monospace" font-size="11.00">ReregisterHook</text>
</g>
<!-- \\LiftKit\\Application\\Exception\\ReregisterHook&#45;&gt;\\Exception -->
<g id="edge2" class="edge"><title>\\LiftKit\\Application\\Exception\\ReregisterHook&#45;&gt;\\Exception</title>
<path fill="none" stroke="black" d="M723.261,-1827.03C709.638,-1823.84 696.352,-1817.85 687.494,-1807 584.97,-1681.4 663.046,-507.344 628.193,-349 606.951,-252.493 554.124,-146.789 528.239,-98.6003"/>
<polygon fill="none" stroke="black" points="531.283,-96.8711 523.439,-89.7494 525.13,-100.208 531.283,-96.8711"/>
</g>
<!-- \\LiftKit\\Application\\Exception\\UnregisteredHook -->
<g id="node3" class="node"><title>\\LiftKit\\Application\\Exception\\UnregisteredHook</title>
<polygon fill="none" stroke="black" points="838.122,-1955 716.887,-1955 716.887,-1919 838.122,-1919 838.122,-1955"/>
<text text-anchor="middle" x="777.505" y="-1933.7" font-family="Courier,monospace" font-size="11.00">UnregisteredHook</text>
</g>
<!-- \\LiftKit\\Application\\Exception\\UnregisteredHook&#45;&gt;\\Exception -->
<g id="edge3" class="edge"><title>\\LiftKit\\Application\\Exception\\UnregisteredHook&#45;&gt;\\Exception</title>
<path fill="none" stroke="black" d="M716.575,-1929.81C705.31,-1925.71 694.793,-1919.46 687.494,-1910 581.47,-1772.58 665.277,-518.562 628.193,-349 607.081,-252.465 554.191,-146.774 528.265,-98.5947"/>
<polygon fill="none" stroke="black" points="531.306,-96.8611 523.457,-89.7454 525.156,-100.203 531.306,-96.8611"/>
</g>
<!-- \\LiftKit\\Application\\Hook\\Action -->
<g id="node4" class="node"><title>\\LiftKit\\Application\\Hook\\Action</title>
<polygon fill="none" stroke="black" points="805.112,-2088 749.897,-2088 749.897,-2052 805.112,-2052 805.112,-2088"/>
<text text-anchor="middle" x="777.505" y="-2066.7" font-family="Courier,monospace" font-size="11.00">Action</text>
</g>
<!-- \\LiftKit\\Application\\Hook\\Hook -->
<g id="node6" class="node"><title>\\LiftKit\\Application\\Hook\\Hook</title>
<polygon fill="none" stroke="black" points="553.481,-2061 471.459,-2061 471.459,-2025 553.481,-2025 553.481,-2061"/>
<text text-anchor="start" x="479.465" y="-2045.2" font-family="Courier,monospace" font-size="11.00">«abstract»</text>
<text text-anchor="start" x="499.268" y="-2034.2" font-family="Courier,monospace" font-size="11.00">Hook</text>
</g>
<!-- \\LiftKit\\Application\\Hook\\Action&#45;&gt;\\LiftKit\\Application\\Hook\\Hook -->
<g id="edge4" class="edge"><title>\\LiftKit\\Application\\Hook\\Action&#45;&gt;\\LiftKit\\Application\\Hook\\Hook</title>
<path fill="none" stroke="black" d="M749.836,-2067.26C706.31,-2062.79 619.306,-2053.86 563.864,-2048.17"/>
<polygon fill="none" stroke="black" points="564.201,-2044.69 553.896,-2047.15 563.487,-2051.65 564.201,-2044.69"/>
</g>
<!-- \\LiftKit\\Application\\Hook\\Event -->
<g id="node5" class="node"><title>\\LiftKit\\Application\\Hook\\Event</title>
<polygon fill="none" stroke="black" points="804.505,-2034 750.505,-2034 750.505,-1998 804.505,-1998 804.505,-2034"/>
<text text-anchor="middle" x="777.505" y="-2012.7" font-family="Courier,monospace" font-size="11.00">Event</text>
</g>
<!-- \\LiftKit\\Application\\Hook\\Event&#45;&gt;\\LiftKit\\Application\\Hook\\Hook -->
<g id="edge5" class="edge"><title>\\LiftKit\\Application\\Hook\\Event&#45;&gt;\\LiftKit\\Application\\Hook\\Hook</title>
<path fill="none" stroke="black" d="M750.322,-2018.69C706.895,-2023.15 619.247,-2032.14 563.61,-2037.85"/>
<polygon fill="none" stroke="black" points="563.202,-2034.38 553.612,-2038.88 563.917,-2041.34 563.202,-2034.38"/>
</g>
<!-- \\LiftKit\\Application\\Application -->
<g id="node7" class="node"><title>\\LiftKit\\Application\\Application</title>
<polygon fill="none" stroke="black" points="821.617,-1793 733.392,-1793 733.392,-1757 821.617,-1757 821.617,-1793"/>
<text text-anchor="middle" x="777.505" y="-1771.7" font-family="Courier,monospace" font-size="11.00">Application</text>
</g>
<!-- \\LiftKit\\Config\\Config -->
<g id="node8" class="node"><title>\\LiftKit\\Config\\Config</title>
<polygon fill="none" stroke="black" points="805.112,-158 749.897,-158 749.897,-122 805.112,-122 805.112,-158"/>
<text text-anchor="middle" x="777.505" y="-136.7" font-family="Courier,monospace" font-size="11.00">Config</text>
</g>
<!-- \\LiftKit\\Collection\\Collection -->
<g id="node40" class="node"><title>\\LiftKit\\Collection\\Collection</title>
<ellipse fill="none" stroke="black" cx="512.47" cy="-18" rx="115.947" ry="18"/>
<text text-anchor="middle" x="512.47" y="-13.8" font-family="Times,serif" font-size="14.00" fill="gray">\LiftKit\Collection\Collection</text>
</g>
<!-- \\LiftKit\\Config\\Config&#45;&gt;\\LiftKit\\Collection\\Collection -->
<g id="edge6" class="edge"><title>\\LiftKit\\Config\\Config&#45;&gt;\\LiftKit\\Collection\\Collection</title>
<path fill="none" stroke="black" d="M753.745,-121.9C725.758,-100.507 676.064,-65.263 628.193,-45 618.626,-40.9503 608.341,-37.4449 597.999,-34.4273"/>
<polygon fill="none" stroke="black" points="598.66,-30.9785 588.088,-31.6816 596.791,-37.7244 598.66,-30.9785"/>
</g>
<!-- \\LiftKit\\Controller\\Exception\\InvalidMethod -->
<g id="node9" class="node"><title>\\LiftKit\\Controller\\Exception\\InvalidMethod</title>
<polygon fill="none" stroke="black" points="828.319,-1564 726.69,-1564 726.69,-1528 828.319,-1528 828.319,-1564"/>
<text text-anchor="middle" x="777.505" y="-1542.7" font-family="Courier,monospace" font-size="11.00">InvalidMethod</text>
</g>
<!-- \\LiftKit\\Controller\\Exception\\InvalidMethod&#45;&gt;\\Exception -->
<g id="edge7" class="edge"><title>\\LiftKit\\Controller\\Exception\\InvalidMethod&#45;&gt;\\Exception</title>
<path fill="none" stroke="black" d="M726.38,-1541.74C711.635,-1537.92 696.942,-1531.09 687.494,-1519 607.331,-1416.45 656.809,-475.983 628.193,-349 606.47,-252.601 553.875,-146.844 528.142,-98.6218"/>
<polygon fill="none" stroke="black" points="531.195,-96.9085 523.371,-89.7644 525.032,-100.228 531.195,-96.9085"/>
</g>
<!-- \\LiftKit\\Controller\\Exception\\InvalidResponse -->
<g id="node10" class="node"><title>\\LiftKit\\Controller\\Exception\\InvalidResponse</title>
<polygon fill="none" stroke="black" points="835.021,-1510 719.988,-1510 719.988,-1474 835.021,-1474 835.021,-1510"/>
<text text-anchor="middle" x="777.505" y="-1488.7" font-family="Courier,monospace" font-size="11.00">InvalidResponse</text>
</g>
<!-- \\LiftKit\\Controller\\Exception\\InvalidResponse&#45;&gt;\\Exception -->
<g id="edge8" class="edge"><title>\\LiftKit\\Controller\\Exception\\InvalidResponse&#45;&gt;\\Exception</title>
<path fill="none" stroke="black" d="M737.57,-1473.81C719.033,-1462.98 698.543,-1447.35 687.494,-1427 572.997,-1216.17 681.441,-582.934 628.193,-349 606.262,-252.648 553.768,-146.868 528.101,-98.6313"/>
<polygon fill="none" stroke="black" points="531.157,-96.9247 523.342,-89.7709 524.99,-100.237 531.157,-96.9247"/>
</g>
<!-- \\LiftKit\\Controller\\Controller -->
<g id="node11" class="node"><title>\\LiftKit\\Controller\\Controller</title>
<polygon fill="none" stroke="black" points="553.481,-1581 471.459,-1581 471.459,-1545 553.481,-1545 553.481,-1581"/>
<text text-anchor="start" x="479.465" y="-1565.2" font-family="Courier,monospace" font-size="11.00">«abstract»</text>
<text text-anchor="start" x="479.465" y="-1554.2" font-family="Courier,monospace" font-size="11.00">Controller</text>
</g>
<!-- \\LiftKit\\Controller\\Rest -->
<g id="node12" class="node"><title>\\LiftKit\\Controller\\Rest</title>
<polygon fill="none" stroke="black" points="818.515,-1635 736.494,-1635 736.494,-1599 818.515,-1599 818.515,-1635"/>
<text text-anchor="start" x="744.499" y="-1619.2" font-family="Courier,monospace" font-size="11.00">«abstract»</text>
<text text-anchor="start" x="764.302" y="-1608.2" font-family="Courier,monospace" font-size="11.00">Rest</text>
</g>
<!-- \\LiftKit\\Controller\\Rest&#45;&gt;\\LiftKit\\Controller\\Controller -->
<g id="edge9" class="edge"><title>\\LiftKit\\Controller\\Rest&#45;&gt;\\LiftKit\\Controller\\Controller</title>
<path fill="none" stroke="black" d="M736.269,-1608.74C689.953,-1599.23 613.835,-1583.6 563.679,-1573.31"/>
<polygon fill="none" stroke="black" points="564.201,-1569.84 553.701,-1571.26 562.793,-1576.7 564.201,-1569.84"/>
</g>
<!-- \\LiftKit\\Controller\\RestInterface -->
<g id="node13" class="node"><title>\\LiftKit\\Controller\\RestInterface</title>
<polygon fill="none" stroke="black" points="563.284,-1635 461.656,-1635 461.656,-1599 563.284,-1599 563.284,-1635"/>
<text text-anchor="middle" x="512.47" y="-1613.7" font-family="Courier,monospace" font-size="11.00">RestInterface</text>
</g>
<!-- \\LiftKit\\Controller\\Rest&#45;&gt;\\LiftKit\\Controller\\RestInterface -->
<g id="edge10" class="edge"><title>\\LiftKit\\Controller\\Rest&#45;&gt;\\LiftKit\\Controller\\RestInterface</title>
<path fill="none" stroke="black" stroke-dasharray="1,5" d="M736.269,-1617C692.916,-1617 623.449,-1617 573.606,-1617"/>
<polygon fill="none" stroke="black" points="573.599,-1613.5 563.599,-1617 573.599,-1620.5 573.599,-1613.5"/>
</g>
<!-- \\LiftKit\\Loader\\File\\Exception\\NonexistentFile -->
<g id="node14" class="node"><title>\\LiftKit\\Loader\\File\\Exception\\NonexistentFile</title>
<polygon fill="none" stroke="black" points="835.021,-1217 719.988,-1217 719.988,-1181 835.021,-1181 835.021,-1217"/>
<text text-anchor="middle" x="777.505" y="-1195.7" font-family="Courier,monospace" font-size="11.00">NonexistentFile</text>
</g>
<!-- \\LiftKit\\Loader\\File\\Exception\\NonexistentFile&#45;&gt;\\Exception -->
<g id="edge12" class="edge"><title>\\LiftKit\\Loader\\File\\Exception\\NonexistentFile&#45;&gt;\\Exception</title>
<path fill="none" stroke="black" d="M720.398,-1180.88C707.605,-1174.12 695.451,-1165.05 687.494,-1153 588.758,-1003.51 669.583,-523.305 628.193,-349 605.363,-252.857 553.303,-146.976 527.921,-98.6731"/>
<polygon fill="none" stroke="black" points="530.993,-96.9958 523.217,-89.8001 524.808,-100.275 530.993,-96.9958"/>
</g>
<!-- \\LiftKit\\Loader\\File\\Config -->
<g id="node15" class="node"><title>\\LiftKit\\Loader\\File\\Config</title>
<polygon fill="none" stroke="black" points="805.112,-1396 749.897,-1396 749.897,-1360 805.112,-1360 805.112,-1396"/>
<text text-anchor="middle" x="777.505" y="-1374.7" font-family="Courier,monospace" font-size="11.00">Config</text>
</g>
<!-- \\LiftKit\\Loader\\File\\Loader -->
<g id="node16" class="node"><title>\\LiftKit\\Loader\\File\\Loader</title>
<polygon fill="none" stroke="black" points="553.481,-1342 471.459,-1342 471.459,-1306 553.481,-1306 553.481,-1342"/>
<text text-anchor="start" x="479.465" y="-1326.2" font-family="Courier,monospace" font-size="11.00">«abstract»</text>
<text text-anchor="start" x="492.667" y="-1315.2" font-family="Courier,monospace" font-size="11.00">Loader</text>
</g>
<!-- \\LiftKit\\Loader\\File\\Config&#45;&gt;\\LiftKit\\Loader\\File\\Loader -->
<g id="edge11" class="edge"><title>\\LiftKit\\Loader\\File\\Config&#45;&gt;\\LiftKit\\Loader\\File\\Loader</title>
<path fill="none" stroke="black" d="M749.836,-1372.53C706.31,-1363.59 619.306,-1345.73 563.864,-1334.35"/>
<polygon fill="none" stroke="black" points="564.396,-1330.88 553.896,-1332.3 562.988,-1337.74 564.396,-1330.88"/>
</g>
<!-- \\LiftKit\\Loader\\File\\Script -->
<g id="node17" class="node"><title>\\LiftKit\\Loader\\File\\Script</title>
<polygon fill="none" stroke="black" points="805.112,-1342 749.897,-1342 749.897,-1306 805.112,-1306 805.112,-1342"/>
<text text-anchor="middle" x="777.505" y="-1320.7" font-family="Courier,monospace" font-size="11.00">Script</text>
</g>
<!-- \\LiftKit\\Loader\\File\\Script&#45;&gt;\\LiftKit\\Loader\\File\\Loader -->
<g id="edge13" class="edge"><title>\\LiftKit\\Loader\\File\\Script&#45;&gt;\\LiftKit\\Loader\\File\\Loader</title>
<path fill="none" stroke="black" d="M749.836,-1324C706.4,-1324 619.667,-1324 564.209,-1324"/>
<polygon fill="none" stroke="black" points="563.896,-1320.5 553.896,-1324 563.896,-1327.5 563.896,-1320.5"/>
</g>
<!-- \\LiftKit\\Loader\\File\\View -->
<g id="node18" class="node"><title>\\LiftKit\\Loader\\File\\View</title>
<polygon fill="none" stroke="black" points="804.505,-1288 750.505,-1288 750.505,-1252 804.505,-1252 804.505,-1288"/>
<text text-anchor="middle" x="777.505" y="-1266.7" font-family="Courier,monospace" font-size="11.00">View</text>
</g>
<!-- \\LiftKit\\Loader\\File\\View&#45;&gt;\\LiftKit\\Loader\\File\\Loader -->
<g id="edge14" class="edge"><title>\\LiftKit\\Loader\\File\\View&#45;&gt;\\LiftKit\\Loader\\File\\Loader</title>
<path fill="none" stroke="black" d="M750.322,-1275.38C706.895,-1284.29 619.247,-1302.28 563.61,-1313.71"/>
<polygon fill="none" stroke="black" points="562.703,-1310.32 553.612,-1315.76 564.111,-1317.18 562.703,-1310.32"/>
</g>
<!-- \\LiftKit\\Module\\Exception\\NonexistentSubModule -->
<g id="node19" class="node"><title>\\LiftKit\\Module\\Exception\\NonexistentSubModule</title>
<polygon fill="none" stroke="black" points="851.526,-291 703.483,-291 703.483,-255 851.526,-255 851.526,-291"/>
<text text-anchor="middle" x="777.505" y="-269.7" font-family="Courier,monospace" font-size="11.00">NonexistentSubModule</text>
</g>
<!-- \\LiftKit\\Module\\Exception\\NonexistentSubModule&#45;&gt;\\Exception -->
<g id="edge15" class="edge"><title>\\LiftKit\\Module\\Exception\\NonexistentSubModule&#45;&gt;\\Exception</title>
<path fill="none" stroke="black" d="M703.292,-258.501C697.797,-256.337 692.464,-253.852 687.494,-251 618.816,-211.596 559.537,-137.277 531.216,-97.9397"/>
<polygon fill="none" stroke="black" points="533.972,-95.7754 525.331,-89.6451 528.263,-99.8261 533.972,-95.7754"/>
</g>
<!-- \\LiftKit\\Module\\Module -->
<g id="node20" class="node"><title>\\LiftKit\\Module\\Module</title>
<polygon fill="none" stroke="black" points="818.515,-237 736.494,-237 736.494,-201 818.515,-201 818.515,-237"/>
<text text-anchor="start" x="744.499" y="-221.2" font-family="Courier,monospace" font-size="11.00">«abstract»</text>
<text text-anchor="start" x="757.701" y="-210.2" font-family="Courier,monospace" font-size="11.00">Module</text>
</g>
<!-- \\LiftKit\\Request\\Http -->
<g id="node21" class="node"><title>\\LiftKit\\Request\\Http</title>
<polygon fill="none" stroke="black" points="804.505,-1714 750.505,-1714 750.505,-1678 804.505,-1678 804.505,-1714"/>
<text text-anchor="middle" x="777.505" y="-1692.7" font-family="Courier,monospace" font-size="11.00">Http</text>
</g>
<!-- \\LiftKit\\Request\\Request -->
<g id="node22" class="node"><title>\\LiftKit\\Request\\Request</title>
<polygon fill="none" stroke="black" points="553.481,-1714 471.459,-1714 471.459,-1678 553.481,-1678 553.481,-1714"/>
<text text-anchor="start" x="479.465" y="-1698.2" font-family="Courier,monospace" font-size="11.00">«abstract»</text>
<text text-anchor="start" x="489.366" y="-1687.2" font-family="Courier,monospace" font-size="11.00">Request</text>
</g>
<!-- \\LiftKit\\Request\\Http&#45;&gt;\\LiftKit\\Request\\Request -->
<g id="edge16" class="edge"><title>\\LiftKit\\Request\\Http&#45;&gt;\\LiftKit\\Request\\Request</title>
<path fill="none" stroke="black" d="M750.322,-1696C706.985,-1696 619.611,-1696 563.957,-1696"/>
<polygon fill="none" stroke="black" points="563.612,-1692.5 553.612,-1696 563.612,-1699.5 563.612,-1692.5"/>
</g>
<!-- \\LiftKit\\Input\\Input -->
<g id="node41" class="node"><title>\\LiftKit\\Input\\Input</title>
<ellipse fill="none" stroke="black" cx="245.373" cy="-72" rx="79.2471" ry="18"/>
<text text-anchor="middle" x="245.373" y="-67.8" font-family="Times,serif" font-size="14.00" fill="gray">\LiftKit\Input\Input</text>
</g>
<!-- \\LiftKit\\Request\\Request&#45;&gt;\\LiftKit\\Input\\Input -->
<g id="edge17" class="edge"><title>\\LiftKit\\Request\\Request&#45;&gt;\\LiftKit\\Input\\Input</title>
<path fill="none" stroke="black" d="M471.23,-1696.64C445.837,-1694.71 414.574,-1687.59 396.747,-1666 318.831,-1571.64 338.33,-688.617 324.747,-567 304.819,-388.567 266.095,-176.171 251.825,-100.499"/>
<polygon fill="none" stroke="black" points="255.202,-99.5205 249.902,-90.3466 248.324,-100.823 255.202,-99.5205"/>
</g>
<!-- \\LiftKit\\Response\\Exception\\ViewFileNotFound -->
<g id="node23" class="node"><title>\\LiftKit\\Response\\Exception\\ViewFileNotFound</title>
<polygon fill="none" stroke="black" points="838.122,-943 716.887,-943 716.887,-907 838.122,-907 838.122,-943"/>
<text text-anchor="middle" x="777.505" y="-921.7" font-family="Courier,monospace" font-size="11.00">ViewFileNotFound</text>
</g>
<!-- \\LiftKit\\Response\\Exception\\ViewFileNotFound&#45;&gt;\\Exception -->
<g id="edge18" class="edge"><title>\\LiftKit\\Response\\Exception\\ViewFileNotFound&#45;&gt;\\Exception</title>
<path fill="none" stroke="black" d="M757.961,-906.719C737.036,-884.859 703.797,-846.161 687.494,-806 610.455,-616.227 681.015,-546.885 628.193,-349 602.708,-253.526 551.931,-147.322 527.389,-98.8072"/>
<polygon fill="none" stroke="black" points="530.505,-97.2136 522.846,-89.8937 524.269,-100.393 530.505,-97.2136"/>
</g>
<!-- \\LiftKit\\Response\\Json -->
<g id="node24" class="node"><title>\\LiftKit\\Response\\Json</title>
<polygon fill="none" stroke="black" points="804.505,-1122 750.505,-1122 750.505,-1086 804.505,-1086 804.505,-1122"/>
<text text-anchor="middle" x="777.505" y="-1100.7" font-family="Courier,monospace" font-size="11.00">Json</text>
</g>
<!-- \\LiftKit\\Response\\Response -->
<g id="node25" class="node"><title>\\LiftKit\\Response\\Response</title>
<polygon fill="none" stroke="black" points="553.481,-1068 471.459,-1068 471.459,-1032 553.481,-1032 553.481,-1068"/>
<text text-anchor="start" x="479.465" y="-1052.2" font-family="Courier,monospace" font-size="11.00">«abstract»</text>
<text text-anchor="start" x="486.066" y="-1041.2" font-family="Courier,monospace" font-size="11.00">Response</text>
</g>
<!-- \\LiftKit\\Response\\Json&#45;&gt;\\LiftKit\\Response\\Response -->
<g id="edge19" class="edge"><title>\\LiftKit\\Response\\Json&#45;&gt;\\LiftKit\\Response\\Response</title>
<path fill="none" stroke="black" d="M750.322,-1098.62C706.895,-1089.71 619.247,-1071.72 563.61,-1060.29"/>
<polygon fill="none" stroke="black" points="564.111,-1056.82 553.612,-1058.24 562.703,-1063.68 564.111,-1056.82"/>
</g>
<!-- \\LiftKit\\Response\\String -->
<g id="node26" class="node"><title>\\LiftKit\\Response\\String</title>
<polygon fill="none" stroke="black" points="805.112,-1068 749.897,-1068 749.897,-1032 805.112,-1032 805.112,-1068"/>
<text text-anchor="middle" x="777.505" y="-1046.7" font-family="Courier,monospace" font-size="11.00">String</text>
</g>
<!-- \\LiftKit\\Response\\String&#45;&gt;\\LiftKit\\Response\\Response -->
<g id="edge20" class="edge"><title>\\LiftKit\\Response\\String&#45;&gt;\\LiftKit\\Response\\Response</title>
<path fill="none" stroke="black" d="M749.836,-1050C706.4,-1050 619.667,-1050 564.209,-1050"/>
<polygon fill="none" stroke="black" points="563.896,-1046.5 553.896,-1050 563.896,-1053.5 563.896,-1046.5"/>
</g>
<!-- \\LiftKit\\Response\\View -->
<g id="node27" class="node"><title>\\LiftKit\\Response\\View</title>
<polygon fill="none" stroke="black" points="804.505,-1014 750.505,-1014 750.505,-978 804.505,-978 804.505,-1014"/>
<text text-anchor="middle" x="777.505" y="-992.7" font-family="Courier,monospace" font-size="11.00">View</text>
</g>
<!-- \\LiftKit\\Response\\View&#45;&gt;\\LiftKit\\Response\\Response -->
<g id="edge21" class="edge"><title>\\LiftKit\\Response\\View&#45;&gt;\\LiftKit\\Response\\Response</title>
<path fill="none" stroke="black" d="M750.322,-1001.38C706.895,-1010.29 619.247,-1028.28 563.61,-1039.71"/>
<polygon fill="none" stroke="black" points="562.703,-1036.32 553.612,-1041.76 564.111,-1043.18 562.703,-1036.32"/>
</g>
<!-- \\LiftKit\\Router\\Exception\\NoMatchingRoute -->
<g id="node28" class="node"><title>\\LiftKit\\Router\\Exception\\NoMatchingRoute</title>
<polygon fill="none" stroke="black" points="835.021,-405 719.988,-405 719.988,-369 835.021,-369 835.021,-405"/>
<text text-anchor="middle" x="777.505" y="-383.7" font-family="Courier,monospace" font-size="11.00">NoMatchingRoute</text>
</g>
<!-- \\LiftKit\\Router\\Exception\\NoMatchingRoute&#45;&gt;\\Exception -->
<g id="edge22" class="edge"><title>\\LiftKit\\Router\\Exception\\NoMatchingRoute&#45;&gt;\\Exception</title>
<path fill="none" stroke="black" d="M746.513,-368.735C728.264,-356.778 705.151,-340.061 687.494,-322 617.139,-250.034 555.214,-146.904 528.067,-98.718"/>
<polygon fill="none" stroke="black" points="531.04,-96.8636 523.109,-89.8388 524.928,-100.276 531.04,-96.8636"/>
</g>
<!-- \\LiftKit\\Router\\Route\\Exception\\Route -->
<g id="node29" class="node"><title>\\LiftKit\\Router\\Route\\Exception\\Route</title>
<polygon fill="none" stroke="black" points="804.505,-536 750.505,-536 750.505,-500 804.505,-500 804.505,-536"/>
<text text-anchor="middle" x="777.505" y="-514.7" font-family="Courier,monospace" font-size="11.00">Route</text>
</g>
<!-- \\LiftKit\\Router\\Route\\Exception\\Route&#45;&gt;\\Exception -->
<g id="edge24" class="edge"><title>\\LiftKit\\Router\\Route\\Exception\\Route&#45;&gt;\\Exception</title>
<path fill="none" stroke="black" d="M750.241,-517.68C730.805,-516.108 704.805,-511.025 687.494,-496 634.29,-449.821 654.85,-414.211 628.193,-349 590.696,-257.27 545.521,-148.776 524.827,-99.1861"/>
<polygon fill="none" stroke="black" points="527.991,-97.6801 520.909,-89.8001 521.531,-100.377 527.991,-97.6801"/>
</g>
<!-- \\LiftKit\\Router\\Route\\Http\\Rest\\Controller -->
<g id="node30" class="node"><title>\\LiftKit\\Router\\Route\\Http\\Rest\\Controller</title>
<polygon fill="none" stroke="black" points="818.515,-775 736.494,-775 736.494,-739 818.515,-739 818.515,-775"/>
<text text-anchor="middle" x="777.505" y="-753.7" font-family="Courier,monospace" font-size="11.00">Controller</text>
</g>
<!-- \\LiftKit\\Router\\Route\\Http\\Rest\\Rest -->
<g id="node32" class="node"><title>\\LiftKit\\Router\\Route\\Http\\Rest\\Rest</title>
<polygon fill="none" stroke="black" points="553.481,-723 471.459,-723 471.459,-687 553.481,-687 553.481,-723"/>
<text text-anchor="start" x="479.465" y="-707.2" font-family="Courier,monospace" font-size="11.00">«abstract»</text>
<text text-anchor="start" x="499.268" y="-696.2" font-family="Courier,monospace" font-size="11.00">Rest</text>
</g>
<!-- \\LiftKit\\Router\\Route\\Http\\Rest\\Controller&#45;&gt;\\LiftKit\\Router\\Route\\Http\\Rest\\Rest -->
<g id="edge28" class="edge"><title>\\LiftKit\\Router\\Route\\Http\\Rest\\Controller&#45;&gt;\\LiftKit\\Router\\Route\\Http\\Rest\\Rest</title>
<path fill="none" stroke="black" d="M736.269,-749.046C689.953,-739.889 613.835,-724.841 563.679,-714.926"/>
<polygon fill="none" stroke="black" points="564.19,-711.459 553.701,-712.953 562.833,-718.326 564.19,-711.459"/>
</g>
<!-- \\LiftKit\\Router\\Route\\Http\\Rest\\ControllerFactory -->
<g id="node31" class="node"><title>\\LiftKit\\Router\\Route\\Http\\Rest\\ControllerFactory</title>
<polygon fill="none" stroke="black" points="841.723,-721 713.286,-721 713.286,-685 841.723,-685 841.723,-721"/>
<text text-anchor="middle" x="777.505" y="-699.7" font-family="Courier,monospace" font-size="11.00">ControllerFactory</text>
</g>
<!-- \\LiftKit\\Router\\Route\\Http\\Rest\\ControllerFactory&#45;&gt;\\LiftKit\\Router\\Route\\Http\\Rest\\Rest -->
<g id="edge29" class="edge"><title>\\LiftKit\\Router\\Route\\Http\\Rest\\ControllerFactory&#45;&gt;\\LiftKit\\Router\\Route\\Http\\Rest\\Rest</title>
<path fill="none" stroke="black" d="M713.167,-703.482C667.384,-703.83 606.367,-704.294 563.878,-704.617"/>
<polygon fill="none" stroke="black" points="563.738,-701.118 553.765,-704.694 563.791,-708.117 563.738,-701.118"/>
</g>
<!-- \\LiftKit\\Router\\Route\\Http\\Http -->
<g id="node35" class="node"><title>\\LiftKit\\Router\\Route\\Http\\Http</title>
<polygon fill="none" stroke="black" points="286.384,-669 204.363,-669 204.363,-633 286.384,-633 286.384,-669"/>
<text text-anchor="start" x="212.368" y="-653.2" font-family="Courier,monospace" font-size="11.00">«abstract»</text>
<text text-anchor="start" x="232.171" y="-642.2" font-family="Courier,monospace" font-size="11.00">Http</text>
</g>
<!-- \\LiftKit\\Router\\Route\\Http\\Rest\\Rest&#45;&gt;\\LiftKit\\Router\\Route\\Http\\Http -->
<g id="edge30" class="edge"><title>\\LiftKit\\Router\\Route\\Http\\Rest\\Rest&#45;&gt;\\LiftKit\\Router\\Route\\Http\\Http</title>
<path fill="none" stroke="black" d="M471.346,-697.511C449.305,-693.346 421.495,-688.006 396.747,-683 363.282,-676.231 325.715,-668.237 296.502,-661.932"/>
<polygon fill="none" stroke="black" points="297.051,-658.47 286.537,-659.777 295.571,-665.312 297.051,-658.47"/>
</g>
<!-- \\LiftKit\\Router\\Route\\Http\\Controller -->
<g id="node33" class="node"><title>\\LiftKit\\Router\\Route\\Http\\Controller</title>
<polygon fill="none" stroke="black" points="553.481,-669 471.459,-669 471.459,-633 553.481,-633 553.481,-669"/>
<text text-anchor="middle" x="512.47" y="-647.7" font-family="Courier,monospace" font-size="11.00">Controller</text>
</g>
<!-- \\LiftKit\\Router\\Route\\Http\\Controller&#45;&gt;\\LiftKit\\Router\\Route\\Http\\Http -->
<g id="edge25" class="edge"><title>\\LiftKit\\Router\\Route\\Http\\Controller&#45;&gt;\\LiftKit\\Router\\Route\\Http\\Http</title>
<path fill="none" stroke="black" d="M471.208,-651C424.457,-651 347.3,-651 296.652,-651"/>
<polygon fill="none" stroke="black" points="296.58,-647.5 286.58,-651 296.58,-654.5 296.58,-647.5"/>
</g>
<!-- \\LiftKit\\Router\\Route\\Http\\ControllerFactory -->
<g id="node34" class="node"><title>\\LiftKit\\Router\\Route\\Http\\ControllerFactory</title>
<polygon fill="none" stroke="black" points="576.689,-615 448.252,-615 448.252,-579 576.689,-579 576.689,-615"/>
<text text-anchor="middle" x="512.47" y="-593.7" font-family="Courier,monospace" font-size="11.00">ControllerFactory</text>
</g>
<!-- \\LiftKit\\Router\\Route\\Http\\ControllerFactory&#45;&gt;\\LiftKit\\Router\\Route\\Http\\Http -->
<g id="edge26" class="edge"><title>\\LiftKit\\Router\\Route\\Http\\ControllerFactory&#45;&gt;\\LiftKit\\Router\\Route\\Http\\Http</title>
<path fill="none" stroke="black" d="M448.31,-609.866C401.806,-619.338 339.434,-632.044 296.373,-640.815"/>
<polygon fill="none" stroke="black" points="295.507,-637.42 286.407,-642.845 296.904,-644.279 295.507,-637.42"/>
</g>
<!-- \\LiftKit\\Router\\Route\\Route -->
<g id="node36" class="node"><title>\\LiftKit\\Router\\Route\\Route</title>
<polygon fill="none" stroke="black" points="94,-669 40,-669 40,-633 94,-633 94,-669"/>
<text text-anchor="middle" x="67" y="-647.7" font-family="Courier,monospace" font-size="11.00">Route</text>
</g>
<!-- \\LiftKit\\Router\\Route\\Http\\Http&#45;&gt;\\LiftKit\\Router\\Route\\Route -->
<g id="edge27" class="edge"><title>\\LiftKit\\Router\\Route\\Http\\Http&#45;&gt;\\LiftKit\\Router\\Route\\Route</title>
<path fill="none" stroke="black" d="M204.352,-651C174.299,-651 133.482,-651 104.356,-651"/>
<polygon fill="none" stroke="black" points="104.197,-647.5 94.1966,-651 104.197,-654.5 104.197,-647.5"/>
</g>
<!-- \\LiftKit\\Router\\Http -->
<g id="node37" class="node"><title>\\LiftKit\\Router\\Http</title>
<polygon fill="none" stroke="black" points="804.505,-476 750.505,-476 750.505,-440 804.505,-440 804.505,-476"/>
<text text-anchor="middle" x="777.505" y="-454.7" font-family="Courier,monospace" font-size="11.00">Http</text>
</g>
<!-- \\LiftKit\\Router\\Router -->
<g id="node38" class="node"><title>\\LiftKit\\Router\\Router</title>
<polygon fill="none" stroke="black" points="540.078,-476 484.862,-476 484.862,-440 540.078,-440 540.078,-476"/>
<text text-anchor="middle" x="512.47" y="-454.7" font-family="Courier,monospace" font-size="11.00">Router</text>
</g>
<!-- \\LiftKit\\Router\\Http&#45;&gt;\\LiftKit\\Router\\Router -->
<g id="edge23" class="edge"><title>\\LiftKit\\Router\\Http&#45;&gt;\\LiftKit\\Router\\Router</title>
<path fill="none" stroke="black" d="M750.322,-458C703.299,-458 604.427,-458 550.489,-458"/>
<polygon fill="none" stroke="black" points="550.33,-454.5 540.33,-458 550.33,-461.5 550.33,-454.5"/>
</g>
</g>
</svg>
